<svg xmlns="http://www.w3.org/2000/svg" xmlns:xlink="http://www.w3.org/1999/xlink" xmlns:lucid="lucid" width="1234" height="699"><g transform="translate(-1081 148)" lucid:page-tab-id="mKE79J_kdydz"><path d="M-2486-1710h7618v3580h-7618z" fill="#fff"/><path d="M1391.65-30.47a5 5 0 0 1 5-5h374a5 5 0 0 1 5 5v211a5 5 0 0 1-5 5h-374a5 5 0 0 1-5-5z" stroke="#000" stroke-width="2" fill="#fff"/><path d="M1391.65 1.86h384m-384 102.4h384" stroke="#000" stroke-width="2" fill="none"/><use xlink:href="#a" transform="matrix(1,0,0,1,1399.6516006276283,-27.472114686161063) translate(21.901234567901213 14.555555555555555)"/><use xlink:href="#b" transform="matrix(1,0,0,1,1399.6516006276283,-27.472114686161063) translate(135.23456790123456 14.555555555555555)"/><use xlink:href="#c" transform="matrix(1,0,0,1,1399.6516006276283,-27.472114686161063) translate(206.14814814814815 14.555555555555555)"/><use xlink:href="#d" transform="matrix(1,0,0,1,1399.6516006276283,-27.472114686161063) translate(271.1358024691358 14.555555555555555)"/><use xlink:href="#e" transform="matrix(1,0,0,1,1403.6516006276283,9.861218647172272) translate(0 14.69999999999999)"/><use xlink:href="#f" transform="matrix(1,0,0,1,1403.6516006276283,9.861218647172272) translate(15.5 14.69999999999999)"/><use xlink:href="#g" transform="matrix(1,0,0,1,1403.6516006276283,9.861218647172272) translate(34.45 14.69999999999999)"/><use xlink:href="#h" transform="matrix(1,0,0,1,1403.6516006276283,9.861218647172272) translate(44.45 14.69999999999999)"/><use xlink:href="#i" transform="matrix(1,0,0,1,1403.6516006276283,9.861218647172272) translate(0 36.29999999999999)"/><use xlink:href="#j" transform="matrix(1,0,0,1,1403.6516006276283,9.861218647172272) translate(15.5 36.29999999999999)"/><use xlink:href="#k" transform="matrix(1,0,0,1,1403.6516006276283,9.861218647172272) translate(93.35000000000001 36.29999999999999)"/><use xlink:href="#h" transform="matrix(1,0,0,1,1403.6516006276283,9.861218647172272) translate(103.35000000000001 36.29999999999999)"/><use xlink:href="#i" transform="matrix(1,0,0,1,1403.6516006276283,9.861218647172272) translate(0 57.89999999999999)"/><use xlink:href="#l" transform="matrix(1,0,0,1,1403.6516006276283,9.861218647172272) translate(15.5 57.89999999999999)"/><use xlink:href="#m" transform="matrix(1,0,0,1,1403.6516006276283,9.861218647172272) translate(83.45 57.89999999999999)"/><use xlink:href="#n" transform="matrix(1,0,0,1,1403.6516006276283,9.861218647172272) translate(93.45 57.89999999999999)"/><use xlink:href="#e" transform="matrix(1,0,0,1,1403.6516006276283,9.861218647172272) translate(0 79.5)"/><use xlink:href="#o" transform="matrix(1,0,0,1,1403.6516006276283,9.861218647172272) translate(15.5 79.5)"/><use xlink:href="#k" transform="matrix(1,0,0,1,1403.6516006276283,9.861218647172272) translate(206.1 79.5)"/><use xlink:href="#p" transform="matrix(1,0,0,1,1403.6516006276283,9.861218647172272) translate(216.1 79.5)"/><use xlink:href="#e" transform="matrix(1,0,0,1,1403.6516006276283,112.26121864717229) translate(0 14.500000000000002)"/><use xlink:href="#q" transform="matrix(1,0,0,1,1403.6516006276283,112.26121864717229) translate(15.5 14.500000000000002)"/><use xlink:href="#r" transform="matrix(1,0,0,1,1403.6516006276283,112.26121864717229) translate(142.25 14.500000000000002)"/><use xlink:href="#e" transform="matrix(1,0,0,1,1403.6516006276283,112.26121864717229) translate(0 36.1)"/><use xlink:href="#s" transform="matrix(1,0,0,1,1403.6516006276283,112.26121864717229) translate(15.5 36.1)"/><use xlink:href="#r" transform="matrix(1,0,0,1,1403.6516006276283,112.26121864717229) translate(155.10000000000002 36.1)"/><use xlink:href="#e" transform="matrix(1,0,0,1,1403.6516006276283,112.26121864717229) translate(0 57.7)"/><use xlink:href="#t" transform="matrix(1,0,0,1,1403.6516006276283,112.26121864717229) translate(15.5 57.7)"/><use xlink:href="#u" transform="matrix(1,0,0,1,1403.6516006276283,112.26121864717229) translate(146.3 57.7)"/><use xlink:href="#v" transform="matrix(1,0,0,1,1403.6516006276283,112.26121864717229) translate(192.25 57.7)"/><use xlink:href="#w" transform="matrix(1,0,0,1,1403.6516006276283,112.26121864717229) translate(237.15 57.7)"/><use xlink:href="#x" transform="matrix(1,0,0,1,1403.6516006276283,112.26121864717229) translate(262.15 57.7)"/><path d="M1691.65 306.52a5 5 0 0 1 5-5h278a5 5 0 0 1 5 5v189a5 5 0 0 1-5 5h-278a5 5 0 0 1-5-5z" stroke="#000" stroke-width="2" fill="#fff"/><path d="M1691.65 338.86h288m-288 124h288" stroke="#000" stroke-width="2" fill="none"/><g><use xlink:href="#y" transform="matrix(1,0,0,1,1699.6466006276282,309.52288531383897) translate(33.950617283950606 14.555555555555555)"/><use xlink:href="#z" transform="matrix(1,0,0,1,1699.6466006276282,309.52288531383897) translate(134.54320987654322 14.555555555555555)"/></g><g><use xlink:href="#i" transform="matrix(1,0,0,1,1703.6466006276282,346.8562186471723) translate(0 14.899999999999993)"/><use xlink:href="#A" transform="matrix(1,0,0,1,1703.6466006276282,346.8562186471723) translate(15.5 14.899999999999993)"/><use xlink:href="#k" transform="matrix(1,0,0,1,1703.6466006276282,346.8562186471723) translate(34.45 14.899999999999993)"/><use xlink:href="#h" transform="matrix(1,0,0,1,1703.6466006276282,346.8562186471723) translate(44.45 14.899999999999993)"/><use xlink:href="#i" transform="matrix(1,0,0,1,1703.6466006276282,346.8562186471723) translate(0 36.49999999999999)"/><use xlink:href="#B" transform="matrix(1,0,0,1,1703.6466006276282,346.8562186471723) translate(15.5 36.49999999999999)"/><use xlink:href="#A" transform="matrix(1,0,0,1,1703.6466006276282,346.8562186471723) translate(93.5 36.49999999999999)"/><use xlink:href="#k" transform="matrix(1,0,0,1,1703.6466006276282,346.8562186471723) translate(112.45 36.49999999999999)"/><use xlink:href="#h" transform="matrix(1,0,0,1,1703.6466006276282,346.8562186471723) translate(122.45 36.49999999999999)"/><use xlink:href="#e" transform="matrix(1,0,0,1,1703.6466006276282,346.8562186471723) translate(0 58.099999999999994)"/><use xlink:href="#C" transform="matrix(1,0,0,1,1703.6466006276282,346.8562186471723) translate(15.5 58.099999999999994)"/><use xlink:href="#g" transform="matrix(1,0,0,1,1703.6466006276282,346.8562186471723) translate(80.45 58.099999999999994)"/><use xlink:href="#D" transform="matrix(1,0,0,1,1703.6466006276282,346.8562186471723) translate(90.45 58.099999999999994)"/><use xlink:href="#e" transform="matrix(1,0,0,1,1703.6466006276282,346.8562186471723) translate(0 79.70000000000002)"/><use xlink:href="#E" transform="matrix(1,0,0,1,1703.6466006276282,346.8562186471723) translate(15.5 79.70000000000002)"/><use xlink:href="#g" transform="matrix(1,0,0,1,1703.6466006276282,346.8562186471723) translate(105.45 79.70000000000002)"/><use xlink:href="#F" transform="matrix(1,0,0,1,1703.6466006276282,346.8562186471723) translate(115.45 79.70000000000002)"/><use xlink:href="#e" transform="matrix(1,0,0,1,1703.6466006276282,346.8562186471723) translate(0 101.30000000000001)"/><use xlink:href="#G" transform="matrix(1,0,0,1,1703.6466006276282,346.8562186471723) translate(15.5 101.30000000000001)"/><use xlink:href="#g" transform="matrix(1,0,0,1,1703.6466006276282,346.8562186471723) translate(180.2 101.30000000000001)"/><use xlink:href="#H" transform="matrix(1,0,0,1,1703.6466006276282,346.8562186471723) translate(190.2 101.30000000000001)"/></g><path d="M1135.65 306.52a5 5 0 0 1 5-5h182a5 5 0 0 1 5 5v170a5 5 0 0 1-5 5h-182a5 5 0 0 1-5-5z" stroke="#000" stroke-width="2" fill="#fff"/><path d="M1135.65 362.98h192m-192 70.2h192" stroke="#000" stroke-width="2" fill="none"/><g><use xlink:href="#I" transform="matrix(1,0,0,1,1143.6516006276283,309.52288531383897) translate(14 14.492063492063489)"/><use xlink:href="#J" transform="matrix(1,0,0,1,1143.6516006276283,309.52288531383897) translate(86.0493827160494 14.492063492063489)"/><use xlink:href="#K" transform="matrix(1,0,0,1,1143.6516006276283,309.52288531383897) translate(59.925925925925924 38.61904761904762)"/></g><g><use xlink:href="#i" transform="matrix(1,0,0,1,1147.6516006276283,370.98320277415644) translate(0 20.299999999999997)"/><use xlink:href="#L" transform="matrix(1,0,0,1,1147.6516006276283,370.98320277415644) translate(15.5 20.299999999999997)"/><use xlink:href="#m" transform="matrix(1,0,0,1,1147.6516006276283,370.98320277415644) translate(80.45 20.299999999999997)"/><use xlink:href="#M" transform="matrix(1,0,0,1,1147.6516006276283,370.98320277415644) translate(90.45 20.299999999999997)"/><use xlink:href="#i" transform="matrix(1,0,0,1,1147.6516006276283,370.98320277415644) translate(0 41.9)"/><use xlink:href="#N" transform="matrix(1,0,0,1,1147.6516006276283,370.98320277415644) translate(15.5 41.9)"/><use xlink:href="#g" transform="matrix(1,0,0,1,1147.6516006276283,370.98320277415644) translate(98.4 41.9)"/><use xlink:href="#O" transform="matrix(1,0,0,1,1147.6516006276283,370.98320277415644) translate(108.4 41.9)"/></g><path d="M1323.66-90.4a5 5 0 0 1 5-5h530.97a5 5 0 0 1 5 5v22a5 5 0 0 1-5 5h-530.97a5 5 0 0 1-5-5z" fill="none"/><g><use xlink:href="#P" transform="matrix(1,0,0,1,1323.6574007900385,-95.40771439000105) translate(0 21.833333333333336)"/><use xlink:href="#Q" transform="matrix(1,0,0,1,1323.6574007900385,-95.40771439000105) translate(113.77777777777779 21.833333333333336)"/><use xlink:href="#R" transform="matrix(1,0,0,1,1323.6574007900385,-95.40771439000105) translate(149.1851851851852 21.833333333333336)"/><use xlink:href="#S" transform="matrix(1,0,0,1,1323.6574007900385,-95.40771439000105) translate(217.18518518518522 21.833333333333336)"/><use xlink:href="#T" transform="matrix(1,0,0,1,1323.6574007900385,-95.40771439000105) translate(338.44444444444446 21.833333333333336)"/></g><path d="M1383.65 306.52a5 5 0 0 1 5-5h182a5 5 0 0 1 5 5v170a5 5 0 0 1-5 5h-182a5 5 0 0 1-5-5z" stroke="#000" stroke-width="2" fill="#fff"/><path d="M1383.65 362.98h192m-192 80.8h192" stroke="#000" stroke-width="2" fill="none"/><g><use xlink:href="#I" transform="matrix(1,0,0,1,1391.6516006276283,309.52288531383897) translate(14 14.492063492063489)"/><use xlink:href="#J" transform="matrix(1,0,0,1,1391.6516006276283,309.52288531383897) translate(86.0493827160494 14.492063492063489)"/><use xlink:href="#U" transform="matrix(1,0,0,1,1391.6516006276283,309.52288531383897) translate(30.345679012345684 38.61904761904762)"/></g><g><use xlink:href="#V" transform="matrix(1,0,0,1,1395.6516006276283,370.98320277415644) translate(0 14.500000000000002)"/><use xlink:href="#W" transform="matrix(1,0,0,1,1395.6516006276283,370.98320277415644) translate(52 14.500000000000002)"/><use xlink:href="#X" transform="matrix(1,0,0,1,1395.6516006276283,370.98320277415644) translate(67.5 14.500000000000002)"/><use xlink:href="#Y" transform="matrix(1,0,0,1,1395.6516006276283,370.98320277415644) translate(0 36.1)"/><use xlink:href="#W" transform="matrix(1,0,0,1,1395.6516006276283,370.98320277415644) translate(63.900000000000006 36.1)"/><use xlink:href="#Z" transform="matrix(1,0,0,1,1395.6516006276283,370.98320277415644) translate(79.4 36.1)"/><use xlink:href="#aa" transform="matrix(1,0,0,1,1395.6516006276283,370.98320277415644) translate(0 57.7)"/><use xlink:href="#W" transform="matrix(1,0,0,1,1395.6516006276283,370.98320277415644) translate(50.25 57.7)"/><use xlink:href="#ab" transform="matrix(1,0,0,1,1395.6516006276283,370.98320277415644) translate(65.75 57.7)"/></g><path d="M2015.65-45.48a5 5 0 0 1 5-5h230a5 5 0 0 1 5 5v153a5 5 0 0 1-5 5h-230a5 5 0 0 1-5-5z" stroke="#000" stroke-width="2" fill="#fff"/><path d="M2015.65 10.98h240m-240 50.6h240" stroke="#000" stroke-width="2" fill="none"/><g><use xlink:href="#ac" transform="matrix(1,0,0,1,2023.6516006276283,-42.47711468616103) translate(28.666666666666657 14.492063492063489)"/><use xlink:href="#ad" transform="matrix(1,0,0,1,2023.6516006276283,-42.47711468616103) translate(115.4320987654321 14.492063492063489)"/><use xlink:href="#ae" transform="matrix(1,0,0,1,2023.6516006276283,-42.47711468616103) translate(5.506172839506178 38.61904761904762)"/></g><g><use xlink:href="#e" transform="matrix(1,0,0,1,2027.6516006276283,69.58320277415643) translate(0 21.1)"/><use xlink:href="#af" transform="matrix(1,0,0,1,2027.6516006276283,69.58320277415643) translate(15.5 21.1)"/><use xlink:href="#g" transform="matrix(1,0,0,1,2027.6516006276283,69.58320277415643) translate(105.35000000000001 21.1)"/><use xlink:href="#ag" transform="matrix(1,0,0,1,2027.6516006276283,69.58320277415643) translate(115.35000000000001 21.1)"/></g><path d="M1359.9 75.03h-123.25a5 5 0 0 0-5 5v202" stroke="#000" stroke-width="2" fill="none"/><path d="M1389.24 75.03l-14.85-14.85-14.86 14.85 14.85 14.85z" stroke="#000" stroke-width="2" fill="#fff"/><path d="M1231.65 297.3l-4.63-14.28h9.27z" stroke="#000" stroke-width="2"/><path d="M1479.65 217.28v64.74" stroke="#000" stroke-width="2" fill="none"/><path d="M1479.65 187.94l-14.85 14.85 14.85 14.84 14.85-14.85z" stroke="#000" stroke-width="2" fill="#fff"/><path d="M1479.65 297.3l-4.63-14.28h9.27z" stroke="#000" stroke-width="2"/><path d="M1777.65 75.03h53a5 5 0 0 1 5 5v210.1" stroke="#000" stroke-width="2" fill="none"/><path d="M1777.68 76h-1.03v-1.95h1.03z" stroke="#000" stroke-width=".05"/><path d="M1845.65 281.2l-10 17.32-10-17.32m10 17.32v-8.5M1787.04 31.02h3.88m7.76 0h7.75m7.76 0h7.75m7.76 0h7.77m7.75 0h7.76m7.76 0h7.76m7.76 0h7.75m7.77 0h8.1m8.42 0h8.42m8.43 0h8.43m8.43 0h8.44m8.42 0h8.43m8.42 0h8.43m8.43 0h8.43m8.44 0h4.2M1795.97 41.02l-17.32-10 17.32-10m-17.32 10h8.5" stroke="#000" stroke-width="2" fill="none"/><path d="M2014.65 32h-1.03v-1.95h1.03z" stroke="#000" stroke-width=".05"/><defs><path d="M15-91v-56l181-69v40L49-119l147 57v40" id="ah"/><path d="M199 0l-22-63H83L61 0H9l90-248h61L250 0h-51zm-33-102l-36-108c-10 38-24 72-36 108h72" id="ai"/><path d="M195-6C206 82 75 100 31 46c-4-6-6-13-8-21l49-6c3 16 16 24 34 25 40 0 42-37 40-79-11 22-30 35-61 35-53 0-70-43-70-97 0-56 18-96 73-97 30 0 46 14 59 34l2-30h47zm-90-29c32 0 41-27 41-63 0-35-9-62-40-62-32 0-39 29-40 63 0 36 9 62 39 62" id="aj"/><path d="M135-150c-39-12-60 13-60 57V0H25l-1-190h47c2 13-1 29 3 40 6-28 27-53 61-41v41" id="ak"/><path d="M185-48c-13 30-37 53-82 52C43 2 14-33 14-96s30-98 90-98c62 0 83 45 84 108H66c0 31 8 55 39 56 18 0 30-7 34-22zm-45-69c5-46-57-63-70-21-2 6-4 13-4 21h74" id="al"/><path d="M133-34C117-15 103 5 69 4 32 3 11-16 11-54c-1-60 55-63 116-61 1-26-3-47-28-47-18 1-26 9-28 27l-52-2c7-38 36-58 82-57s74 22 75 68l1 82c-1 14 12 18 25 15v27c-30 8-71 5-69-32zm-48 3c29 0 43-24 42-57-32 0-66-3-65 30 0 17 8 27 23 27" id="am"/><path d="M115-3C79 11 28 4 28-45v-112H4v-33h27l15-45h31v45h36v33H77v99c-1 23 16 31 38 25v30" id="an"/><g id="a"><use transform="matrix(0.04938271604938272,0,0,0.04938271604938272,0,0)" xlink:href="#ah"/><use transform="matrix(0.04938271604938272,0,0,0.04938271604938272,10.370370370370372,0)" xlink:href="#ah"/><use transform="matrix(0.04938271604938272,0,0,0.04938271604938272,20.740740740740744,0)" xlink:href="#ai"/><use transform="matrix(0.04938271604938272,0,0,0.04938271604938272,33.53086419753087,0)" xlink:href="#aj"/><use transform="matrix(0.04938271604938272,0,0,0.04938271604938272,44.345679012345684,0)" xlink:href="#aj"/><use transform="matrix(0.04938271604938272,0,0,0.04938271604938272,55.1604938271605,0)" xlink:href="#ak"/><use transform="matrix(0.04938271604938272,0,0,0.04938271604938272,62.074074074074076,0)" xlink:href="#al"/><use transform="matrix(0.04938271604938272,0,0,0.04938271604938272,71.95061728395063,0)" xlink:href="#aj"/><use transform="matrix(0.04938271604938272,0,0,0.04938271604938272,82.76543209876544,0)" xlink:href="#am"/><use transform="matrix(0.04938271604938272,0,0,0.04938271604938272,92.64197530864199,0)" xlink:href="#an"/><use transform="matrix(0.04938271604938272,0,0,0.04938271604938272,98.51851851851853,0)" xlink:href="#al"/></g><path d="M240-174c0 40-23 61-54 70L253 0h-59l-57-94H76V0H24v-248c93 4 217-23 216 74zM76-134c48-2 112 12 112-38 0-48-66-32-112-35v73" id="ao"/><path d="M110-194c64 0 96 36 96 99 0 64-35 99-97 99-61 0-95-36-95-99 0-62 34-99 96-99zm-1 164c35 0 45-28 45-65 0-40-10-65-43-65-34 0-45 26-45 65 0 36 10 65 43 65" id="ap"/><path d="M15-22v-40l146-57-146-57v-40l181 69v56" id="aq"/><g id="b"><use transform="matrix(0.04938271604938272,0,0,0.04938271604938272,0,0)" xlink:href="#ao"/><use transform="matrix(0.04938271604938272,0,0,0.04938271604938272,12.790123456790125,0)" xlink:href="#ap"/><use transform="matrix(0.04938271604938272,0,0,0.04938271604938272,23.60493827160494,0)" xlink:href="#ap"/><use transform="matrix(0.04938271604938272,0,0,0.04938271604938272,34.41975308641975,0)" xlink:href="#an"/><use transform="matrix(0.04938271604938272,0,0,0.04938271604938272,40.2962962962963,0)" xlink:href="#aq"/><use transform="matrix(0.04938271604938272,0,0,0.04938271604938272,50.66666666666667,0)" xlink:href="#aq"/></g><path d="M67-125c0 53 21 87 73 88 37 1 54-22 65-47l45 17C233-25 199 4 140 4 58 4 20-42 15-125 8-235 124-281 211-232c18 10 29 29 36 50l-46 12c-8-25-30-41-62-41-52 0-71 34-72 86" id="ar"/><path d="M85 4C-2 5 27-109 22-190h50c7 57-23 150 33 157 60-5 35-97 40-157h50l1 190h-47c-2-12 1-28-3-38-12 25-28 42-61 42" id="as"/><path d="M135-194c87-1 58 113 63 194h-50c-7-57 23-157-34-157-59 0-34 97-39 157H25l-1-190h47c2 12-1 28 3 38 12-26 28-41 61-42" id="at"/><g id="c"><use transform="matrix(0.04938271604938272,0,0,0.04938271604938272,0,0)" xlink:href="#ar"/><use transform="matrix(0.04938271604938272,0,0,0.04938271604938272,12.790123456790125,0)" xlink:href="#as"/><use transform="matrix(0.04938271604938272,0,0,0.04938271604938272,23.60493827160494,0)" xlink:href="#al"/><use transform="matrix(0.04938271604938272,0,0,0.04938271604938272,33.48148148148148,0)" xlink:href="#at"/><use transform="matrix(0.04938271604938272,0,0,0.04938271604938272,44.2962962962963,0)" xlink:href="#an"/><use transform="matrix(0.04938271604938272,0,0,0.04938271604938272,50.17283950617284,0)" xlink:href="#am"/></g><path d="M182-130c37 4 62 22 62 59C244 23 116-4 24 0v-248c84 5 203-23 205 63 0 31-19 50-47 55zM76-148c40-3 101 13 101-30 0-44-60-28-101-31v61zm0 110c48-3 116 14 116-37 0-48-69-32-116-35v72" id="au"/><path d="M190-63c-7 42-38 67-86 67-59 0-84-38-90-98-12-110 154-137 174-36l-49 2c-2-19-15-32-35-32-30 0-35 28-38 64-6 74 65 87 74 30" id="av"/><path d="M25-224v-37h50v37H25zM25 0v-190h50V0H25" id="aw"/><g id="d"><use transform="matrix(0.04938271604938272,0,0,0.04938271604938272,0,0)" xlink:href="#au"/><use transform="matrix(0.04938271604938272,0,0,0.04938271604938272,12.790123456790125,0)" xlink:href="#am"/><use transform="matrix(0.04938271604938272,0,0,0.04938271604938272,22.66666666666667,0)" xlink:href="#at"/><use transform="matrix(0.04938271604938272,0,0,0.04938271604938272,33.48148148148149,0)" xlink:href="#av"/><use transform="matrix(0.04938271604938272,0,0,0.04938271604938272,43.35802469135803,0)" xlink:href="#am"/><use transform="matrix(0.04938271604938272,0,0,0.04938271604938272,53.23456790123457,0)" xlink:href="#ak"/><use transform="matrix(0.04938271604938272,0,0,0.04938271604938272,60.14814814814817,0)" xlink:href="#aw"/><use transform="matrix(0.04938271604938272,0,0,0.04938271604938272,65.08641975308643,0)" xlink:href="#am"/></g><path d="M118-107v75H92v-75H18v-26h74v-75h26v75h74v26h-74" id="ax"/><use transform="matrix(0.05,0,0,0.05,0,0)" xlink:href="#ax" id="e"/><path d="M24-231v-30h32v30H24zM24 0v-190h32V0H24" id="ay"/><path d="M85-194c31 0 48 13 60 33l-1-100h32l1 261h-30c-2-10 0-23-3-31C134-8 116 4 85 4 32 4 16-35 15-94c0-66 23-100 70-100zm9 24c-40 0-46 34-46 75 0 40 6 74 45 74 42 0 51-32 51-76 0-42-9-74-50-73" id="az"/><g id="f"><use transform="matrix(0.05,0,0,0.05,0,0)" xlink:href="#ay"/><use transform="matrix(0.05,0,0,0.05,3.95,0)" xlink:href="#az"/></g><path d="M33-154v-36h34v36H33zM33 0v-36h34V0H33" id="aA"/><use transform="matrix(0.05,0,0,0.05,0,0)" xlink:href="#aA" id="g"/><path d="M135-143c-3-34-86-38-87 0 15 53 115 12 119 90S17 21 10-45l28-5c4 36 97 45 98 0-10-56-113-15-118-90-4-57 82-63 122-42 12 7 21 19 24 35" id="aB"/><path d="M59-47c-2 24 18 29 38 22v24C64 9 27 4 27-40v-127H5v-23h24l9-43h21v43h35v23H59v120" id="aC"/><path d="M114-163C36-179 61-72 57 0H25l-1-190h30c1 12-1 29 2 39 6-27 23-49 58-41v29" id="aD"/><path d="M117-194c89-4 53 116 60 194h-32v-121c0-31-8-49-39-48C34-167 62-67 57 0H25l-1-190h30c1 10-1 24 2 32 11-22 29-35 61-36" id="aE"/><path d="M177-190C167-65 218 103 67 71c-23-6-38-20-44-43l32-5c15 47 100 32 89-28v-30C133-14 115 1 83 1 29 1 15-40 15-95c0-56 16-97 71-98 29-1 48 16 59 35 1-10 0-23 2-32h30zM94-22c36 0 50-32 50-73 0-42-14-75-50-75-39 0-46 34-46 75s6 73 46 73" id="aF"/><g id="h"><use transform="matrix(0.05,0,0,0.05,0,0)" xlink:href="#aB"/><use transform="matrix(0.05,0,0,0.05,9,0)" xlink:href="#aC"/><use transform="matrix(0.05,0,0,0.05,14,0)" xlink:href="#aD"/><use transform="matrix(0.05,0,0,0.05,19.95,0)" xlink:href="#ay"/><use transform="matrix(0.05,0,0,0.05,23.9,0)" xlink:href="#aE"/><use transform="matrix(0.05,0,0,0.05,33.9,0)" xlink:href="#aF"/></g><use transform="matrix(0.05,0,0,0.05,0,0)" xlink:href="#ax" id="i"/><path d="M100-194c62-1 85 37 85 99 1 63-27 99-86 99S16-35 15-95c0-66 28-99 85-99zM99-20c44 1 53-31 53-75 0-43-8-75-51-75s-53 32-53 75 10 74 51 75" id="aG"/><path d="M206 0h-36l-40-164L89 0H53L-1-190h32L70-26l43-164h34l41 164 42-164h31" id="aH"/><path d="M100-194c63 0 86 42 84 106H49c0 40 14 67 53 68 26 1 43-12 49-29l28 8c-11 28-37 45-77 45C44 4 14-33 15-96c1-61 26-98 85-98zm52 81c6-60-76-77-97-28-3 7-6 17-6 28h103" id="aI"/><path d="M-5 72V49h209v23H-5" id="aJ"/><g id="j"><use transform="matrix(0.05,0,0,0.05,0,0)" xlink:href="#aG"/><use transform="matrix(0.05,0,0,0.05,10,0)" xlink:href="#aH"/><use transform="matrix(0.05,0,0,0.05,22.950000000000003,0)" xlink:href="#aE"/><use transform="matrix(0.05,0,0,0.05,32.95,0)" xlink:href="#aI"/><use transform="matrix(0.05,0,0,0.05,42.95,0)" xlink:href="#aD"/><use transform="matrix(0.05,0,0,0.05,48.900000000000006,0)" xlink:href="#aJ"/><use transform="matrix(0.05,0,0,0.05,58.900000000000006,0)" xlink:href="#ay"/><use transform="matrix(0.05,0,0,0.05,62.85,0)" xlink:href="#az"/></g><use transform="matrix(0.05,0,0,0.05,0,0)" xlink:href="#aA" id="k"/><path d="M115-194c53 0 69 39 70 98 0 66-23 100-70 100C84 3 66-7 56-30L54 0H23l1-261h32v101c10-23 28-34 59-34zm-8 174c40 0 45-34 45-75 0-40-5-75-45-74-42 0-51 32-51 76 0 43 10 73 51 73" id="aK"/><path d="M141-36C126-15 110 5 73 4 37 3 15-17 15-53c-1-64 63-63 125-63 3-35-9-54-41-54-24 1-41 7-42 31l-33-3c5-37 33-52 76-52 45 0 72 20 72 64v82c-1 20 7 32 28 27v20c-31 9-61-2-59-35zM48-53c0 20 12 33 32 33 41-3 63-29 60-74-43 2-92-5-92 41" id="aL"/><path d="M24 0v-261h32V0H24" id="aM"/><path d="M96-169c-40 0-48 33-48 73s9 75 48 75c24 0 41-14 43-38l32 2c-6 37-31 61-74 61-59 0-76-41-82-99-10-93 101-131 147-64 4 7 5 14 7 22l-32 3c-4-21-16-35-41-35" id="aN"/><g id="l"><use transform="matrix(0.05,0,0,0.05,0,0)" xlink:href="#aK"/><use transform="matrix(0.05,0,0,0.05,10,0)" xlink:href="#aL"/><use transform="matrix(0.05,0,0,0.05,20,0)" xlink:href="#aM"/><use transform="matrix(0.05,0,0,0.05,23.95,0)" xlink:href="#aL"/><use transform="matrix(0.05,0,0,0.05,33.95,0)" xlink:href="#aE"/><use transform="matrix(0.05,0,0,0.05,43.95,0)" xlink:href="#aN"/><use transform="matrix(0.05,0,0,0.05,52.95,0)" xlink:href="#aI"/></g><use transform="matrix(0.05,0,0,0.05,0,0)" xlink:href="#aA" id="m"/><path d="M30-248c118-7 216 8 213 122C240-48 200 0 122 0H30v-248zM63-27c89 8 146-16 146-99s-60-101-146-95v194" id="aO"/><g id="n"><use transform="matrix(0.05,0,0,0.05,0,0)" xlink:href="#aO"/><use transform="matrix(0.05,0,0,0.05,12.950000000000001,0)" xlink:href="#ay"/><use transform="matrix(0.05,0,0,0.05,16.900000000000002,0)" xlink:href="#aE"/><use transform="matrix(0.05,0,0,0.05,26.900000000000002,0)" xlink:href="#aI"/><use transform="matrix(0.05,0,0,0.05,36.900000000000006,0)" xlink:href="#aD"/><use transform="matrix(0.05,0,0,0.05,42.85000000000001,0)" xlink:href="#aG"/></g><path d="M145-31C134-9 116 4 85 4 32 4 16-35 15-94c0-59 17-99 70-100 32-1 48 14 60 33 0-11-1-24 2-32h30l-1 268h-32zM93-21c41 0 51-33 51-76s-8-73-50-73c-40 0-46 35-46 75s5 74 45 74" id="aP"/><path d="M84 4C-5 8 30-112 23-190h32v120c0 31 7 50 39 49 72-2 45-101 50-169h31l1 190h-30c-1-10 1-25-2-33-11 22-28 36-60 37" id="aQ"/><path d="M179-190L93 31C79 59 56 82 12 73V49c39 6 53-20 64-50L1-190h34L92-34l54-156h33" id="aR"/><path d="M108 0H70L1-190h34L89-25l56-165h34" id="aS"/><g id="o"><use transform="matrix(0.05,0,0,0.05,0,0)" xlink:href="#aD"/><use transform="matrix(0.05,0,0,0.05,5.95,0)" xlink:href="#aI"/><use transform="matrix(0.05,0,0,0.05,15.949999999999998,0)" xlink:href="#aP"/><use transform="matrix(0.05,0,0,0.05,25.950000000000003,0)" xlink:href="#aQ"/><use transform="matrix(0.05,0,0,0.05,35.95,0)" xlink:href="#ay"/><use transform="matrix(0.05,0,0,0.05,39.900000000000006,0)" xlink:href="#aD"/><use transform="matrix(0.05,0,0,0.05,45.85000000000001,0)" xlink:href="#aI"/><use transform="matrix(0.05,0,0,0.05,55.85,0)" xlink:href="#az"/><use transform="matrix(0.05,0,0,0.05,65.85000000000001,0)" xlink:href="#aJ"/><use transform="matrix(0.05,0,0,0.05,75.85000000000001,0)" xlink:href="#ay"/><use transform="matrix(0.05,0,0,0.05,79.80000000000001,0)" xlink:href="#aE"/><use transform="matrix(0.05,0,0,0.05,89.80000000000001,0)" xlink:href="#aC"/><use transform="matrix(0.05,0,0,0.05,94.80000000000001,0)" xlink:href="#aI"/><use transform="matrix(0.05,0,0,0.05,104.80000000000001,0)" xlink:href="#aF"/><use transform="matrix(0.05,0,0,0.05,114.80000000000001,0)" xlink:href="#aD"/><use transform="matrix(0.05,0,0,0.05,120.75,0)" xlink:href="#ay"/><use transform="matrix(0.05,0,0,0.05,124.7,0)" xlink:href="#aC"/><use transform="matrix(0.05,0,0,0.05,129.70000000000002,0)" xlink:href="#aR"/><use transform="matrix(0.05,0,0,0.05,138.70000000000002,0)" xlink:href="#aJ"/><use transform="matrix(0.05,0,0,0.05,148.70000000000002,0)" xlink:href="#aM"/><use transform="matrix(0.05,0,0,0.05,152.65,0)" xlink:href="#aI"/><use transform="matrix(0.05,0,0,0.05,162.65,0)" xlink:href="#aS"/><use transform="matrix(0.05,0,0,0.05,171.65,0)" xlink:href="#aI"/><use transform="matrix(0.05,0,0,0.05,181.65,0)" xlink:href="#aM"/></g><path d="M33 0v-248h34V0H33" id="aT"/><path d="M30 0v-248h33v221h125V0H30" id="aU"/><g id="p"><use transform="matrix(0.05,0,0,0.05,0,0)" xlink:href="#aT"/><use transform="matrix(0.05,0,0,0.05,5,0)" xlink:href="#aE"/><use transform="matrix(0.05,0,0,0.05,15,0)" xlink:href="#aC"/><use transform="matrix(0.05,0,0,0.05,20,0)" xlink:href="#aI"/><use transform="matrix(0.05,0,0,0.05,30,0)" xlink:href="#aF"/><use transform="matrix(0.05,0,0,0.05,40,0)" xlink:href="#aD"/><use transform="matrix(0.05,0,0,0.05,45.95,0)" xlink:href="#ay"/><use transform="matrix(0.05,0,0,0.05,49.900000000000006,0)" xlink:href="#aC"/><use transform="matrix(0.05,0,0,0.05,54.900000000000006,0)" xlink:href="#aR"/><use transform="matrix(0.05,0,0,0.05,63.900000000000006,0)" xlink:href="#aU"/><use transform="matrix(0.05,0,0,0.05,73.9,0)" xlink:href="#aI"/><use transform="matrix(0.05,0,0,0.05,83.9,0)" xlink:href="#aS"/><use transform="matrix(0.05,0,0,0.05,92.9,0)" xlink:href="#aI"/><use transform="matrix(0.05,0,0,0.05,102.9,0)" xlink:href="#aM"/></g><path d="M115-194c55 1 70 41 70 98S169 2 115 4C84 4 66-9 55-30l1 105H24l-1-265h31l2 30c10-21 28-34 59-34zm-8 174c40 0 45-34 45-75s-6-73-45-74c-42 0-51 32-51 76 0 43 10 73 51 73" id="aV"/><path d="M87 75C49 33 22-17 22-94c0-76 28-126 65-167h31c-38 41-64 92-64 168S80 34 118 75H87" id="aW"/><path d="M68-38c1 34 0 65-14 84H32c9-13 17-26 17-46H33v-38h35" id="aX"/><g id="q"><use transform="matrix(0.05,0,0,0.05,0,0)" xlink:href="#az"/><use transform="matrix(0.05,0,0,0.05,10,0)" xlink:href="#aI"/><use transform="matrix(0.05,0,0,0.05,20,0)" xlink:href="#aV"/><use transform="matrix(0.05,0,0,0.05,30,0)" xlink:href="#aG"/><use transform="matrix(0.05,0,0,0.05,40,0)" xlink:href="#aB"/><use transform="matrix(0.05,0,0,0.05,49,0)" xlink:href="#ay"/><use transform="matrix(0.05,0,0,0.05,52.95,0)" xlink:href="#aC"/><use transform="matrix(0.05,0,0,0.05,57.95,0)" xlink:href="#aW"/><use transform="matrix(0.05,0,0,0.05,63.900000000000006,0)" xlink:href="#aO"/><use transform="matrix(0.05,0,0,0.05,76.85000000000001,0)" xlink:href="#ay"/><use transform="matrix(0.05,0,0,0.05,80.80000000000001,0)" xlink:href="#aE"/><use transform="matrix(0.05,0,0,0.05,90.80000000000001,0)" xlink:href="#aI"/><use transform="matrix(0.05,0,0,0.05,100.80000000000001,0)" xlink:href="#aD"/><use transform="matrix(0.05,0,0,0.05,106.75,0)" xlink:href="#aG"/><use transform="matrix(0.05,0,0,0.05,116.75,0)" xlink:href="#aX"/></g><path d="M33-261c38 41 65 92 65 168S71 34 33 75H2C39 34 66-17 66-93S39-220 2-261h31" id="aY"/><g id="r"><use transform="matrix(0.05,0,0,0.05,0,0)" xlink:href="#aT"/><use transform="matrix(0.05,0,0,0.05,5,0)" xlink:href="#aE"/><use transform="matrix(0.05,0,0,0.05,15,0)" xlink:href="#aC"/><use transform="matrix(0.05,0,0,0.05,20,0)" xlink:href="#aI"/><use transform="matrix(0.05,0,0,0.05,30,0)" xlink:href="#aF"/><use transform="matrix(0.05,0,0,0.05,40,0)" xlink:href="#aD"/><use transform="matrix(0.05,0,0,0.05,45.95,0)" xlink:href="#ay"/><use transform="matrix(0.05,0,0,0.05,49.900000000000006,0)" xlink:href="#aC"/><use transform="matrix(0.05,0,0,0.05,54.900000000000006,0)" xlink:href="#aR"/><use transform="matrix(0.05,0,0,0.05,63.900000000000006,0)" xlink:href="#aU"/><use transform="matrix(0.05,0,0,0.05,73.9,0)" xlink:href="#aI"/><use transform="matrix(0.05,0,0,0.05,83.9,0)" xlink:href="#aS"/><use transform="matrix(0.05,0,0,0.05,92.9,0)" xlink:href="#aI"/><use transform="matrix(0.05,0,0,0.05,102.9,0)" xlink:href="#aM"/><use transform="matrix(0.05,0,0,0.05,106.85000000000001,0)" xlink:href="#aY"/></g><path d="M106-169C34-169 62-67 57 0H25v-261h32l-1 103c12-21 28-36 61-36 89 0 53 116 60 194h-32v-121c2-32-8-49-39-48" id="aZ"/><g id="s"><use transform="matrix(0.05,0,0,0.05,0,0)" xlink:href="#aH"/><use transform="matrix(0.05,0,0,0.05,12.950000000000001,0)" xlink:href="#ay"/><use transform="matrix(0.05,0,0,0.05,16.900000000000002,0)" xlink:href="#aC"/><use transform="matrix(0.05,0,0,0.05,21.900000000000002,0)" xlink:href="#aZ"/><use transform="matrix(0.05,0,0,0.05,31.900000000000002,0)" xlink:href="#az"/><use transform="matrix(0.05,0,0,0.05,41.900000000000006,0)" xlink:href="#aD"/><use transform="matrix(0.05,0,0,0.05,47.85000000000001,0)" xlink:href="#aL"/><use transform="matrix(0.05,0,0,0.05,57.85,0)" xlink:href="#aH"/><use transform="matrix(0.05,0,0,0.05,70.80000000000001,0)" xlink:href="#aW"/><use transform="matrix(0.05,0,0,0.05,76.75000000000001,0)" xlink:href="#aO"/><use transform="matrix(0.05,0,0,0.05,89.70000000000002,0)" xlink:href="#ay"/><use transform="matrix(0.05,0,0,0.05,93.65000000000002,0)" xlink:href="#aE"/><use transform="matrix(0.05,0,0,0.05,103.65000000000003,0)" xlink:href="#aI"/><use transform="matrix(0.05,0,0,0.05,113.65000000000003,0)" xlink:href="#aD"/><use transform="matrix(0.05,0,0,0.05,119.60000000000002,0)" xlink:href="#aG"/><use transform="matrix(0.05,0,0,0.05,129.60000000000002,0)" xlink:href="#aX"/></g><path d="M101-234c-31-9-42 10-38 44h38v23H63V0H32v-167H5v-23h27c-7-52 17-82 69-68v24" id="ba"/><g id="t"><use transform="matrix(0.05,0,0,0.05,0,0)" xlink:href="#aJ"/><use transform="matrix(0.05,0,0,0.05,10,0)" xlink:href="#aI"/><use transform="matrix(0.05,0,0,0.05,20,0)" xlink:href="#aE"/><use transform="matrix(0.05,0,0,0.05,30,0)" xlink:href="#ba"/><use transform="matrix(0.05,0,0,0.05,35,0)" xlink:href="#aG"/><use transform="matrix(0.05,0,0,0.05,45,0)" xlink:href="#aD"/><use transform="matrix(0.05,0,0,0.05,50.95,0)" xlink:href="#aN"/><use transform="matrix(0.05,0,0,0.05,59.95,0)" xlink:href="#aI"/><use transform="matrix(0.05,0,0,0.05,69.95,0)" xlink:href="#aJ"/><use transform="matrix(0.05,0,0,0.05,79.95,0)" xlink:href="#aK"/><use transform="matrix(0.05,0,0,0.05,89.95,0)" xlink:href="#ay"/><use transform="matrix(0.05,0,0,0.05,93.9,0)" xlink:href="#aK"/><use transform="matrix(0.05,0,0,0.05,103.9,0)" xlink:href="#aL"/><use transform="matrix(0.05,0,0,0.05,113.9,0)" xlink:href="#aW"/><use transform="matrix(0.05,0,0,0.05,119.85000000000001,0)" xlink:href="#aY"/></g><path d="M26 75v-336h71v23H56V52h41v23H26" id="bb"/><path d="M160-131c35 5 61 23 61 61C221 17 115-2 30 0v-248c76 3 177-17 177 60 0 33-19 50-47 57zm-97-11c50-1 110 9 110-42 0-47-63-36-110-37v79zm0 115c55-2 124 14 124-45 0-56-70-42-124-44v89" id="bc"/><g id="u"><use transform="matrix(0.05,0,0,0.05,0,0)" xlink:href="#bb"/><use transform="matrix(0.05,0,0,0.05,5,0)" xlink:href="#bc"/><use transform="matrix(0.05,0,0,0.05,17,0)" xlink:href="#ay"/><use transform="matrix(0.05,0,0,0.05,20.95,0)" xlink:href="#aK"/><use transform="matrix(0.05,0,0,0.05,30.950000000000003,0)" xlink:href="#aL"/></g><g id="v"><use transform="matrix(0.05,0,0,0.05,0,0)" xlink:href="#aD"/><use transform="matrix(0.05,0,0,0.05,5.95,0)" xlink:href="#aI"/><use transform="matrix(0.05,0,0,0.05,15.949999999999998,0)" xlink:href="#aF"/><use transform="matrix(0.05,0,0,0.05,25.950000000000003,0)" xlink:href="#aM"/><use transform="matrix(0.05,0,0,0.05,29.899999999999995,0)" xlink:href="#aL"/></g><g id="w"><use transform="matrix(0.05,0,0,0.05,0,0)" xlink:href="#az"/><use transform="matrix(0.05,0,0,0.05,10,0)" xlink:href="#aI"/></g><path d="M3 75V52h41v-290H3v-23h71V75H3" id="bd"/><g id="x"><use transform="matrix(0.05,0,0,0.05,0,0)" xlink:href="#aB"/><use transform="matrix(0.05,0,0,0.05,9,0)" xlink:href="#aI"/><use transform="matrix(0.05,0,0,0.05,19,0)" xlink:href="#aF"/><use transform="matrix(0.05,0,0,0.05,29,0)" xlink:href="#aQ"/><use transform="matrix(0.05,0,0,0.05,39,0)" xlink:href="#aD"/><use transform="matrix(0.05,0,0,0.05,44.95,0)" xlink:href="#ay"/><use transform="matrix(0.05,0,0,0.05,48.900000000000006,0)" xlink:href="#az"/><use transform="matrix(0.05,0,0,0.05,58.900000000000006,0)" xlink:href="#aL"/><use transform="matrix(0.05,0,0,0.05,68.9,0)" xlink:href="#az"/><use transform="matrix(0.05,0,0,0.05,78.9,0)" xlink:href="#bd"/></g><path d="M24 0v-248h195v40H76v63h132v40H76v65h150V0H24" id="be"/><path d="M123 10C108 53 80 86 19 72V37c35 8 53-11 59-39L3-190h52l48 148c12-52 28-100 44-148h51" id="bf"/><g id="y"><use transform="matrix(0.04938271604938272,0,0,0.04938271604938272,0,0)" xlink:href="#ah"/><use transform="matrix(0.04938271604938272,0,0,0.04938271604938272,10.370370370370372,0)" xlink:href="#ah"/><use transform="matrix(0.04938271604938272,0,0,0.04938271604938272,20.740740740740744,0)" xlink:href="#be"/><use transform="matrix(0.04938271604938272,0,0,0.04938271604938272,32.592592592592595,0)" xlink:href="#at"/><use transform="matrix(0.04938271604938272,0,0,0.04938271604938272,43.40740740740741,0)" xlink:href="#an"/><use transform="matrix(0.04938271604938272,0,0,0.04938271604938272,49.283950617283956,0)" xlink:href="#aw"/><use transform="matrix(0.04938271604938272,0,0,0.04938271604938272,54.22222222222223,0)" xlink:href="#an"/><use transform="matrix(0.04938271604938272,0,0,0.04938271604938272,60.09876543209877,0)" xlink:href="#bf"/><use transform="matrix(0.04938271604938272,0,0,0.04938271604938272,69.97530864197532,0)" xlink:href="#aq"/><use transform="matrix(0.04938271604938272,0,0,0.04938271604938272,80.34567901234568,0)" xlink:href="#aq"/></g><path d="M136-208V0H84v-208H4v-40h212v40h-80" id="bg"/><path d="M137-138c1-29-70-34-71-4 15 46 118 7 119 86 1 83-164 76-172 9l43-7c4 19 20 25 44 25 33 8 57-30 24-41C81-84 22-81 20-136c-2-80 154-74 161-7" id="bh"/><path d="M110-194c64 0 96 36 96 99 0 64-35 99-97 99-61 0-95-36-95-99 0-62 34-99 96-99zm-1 164c35 0 45-28 45-65 0-40-10-65-43-65-34 0-45 26-45 65 0 36 10 65 43 65zM81-208v-5l45-51h45v8l-60 48H81" id="bi"/><g id="z"><use transform="matrix(0.04938271604938272,0,0,0.04938271604938272,0,0)" xlink:href="#bg"/><use transform="matrix(0.04938271604938272,0,0,0.04938271604938272,9.82716049382716,0)" xlink:href="#ak"/><use transform="matrix(0.04938271604938272,0,0,0.04938271604938272,16.74074074074074,0)" xlink:href="#am"/><use transform="matrix(0.04938271604938272,0,0,0.04938271604938272,26.617283950617285,0)" xlink:href="#at"/><use transform="matrix(0.04938271604938272,0,0,0.04938271604938272,37.4320987654321,0)" xlink:href="#bh"/><use transform="matrix(0.04938271604938272,0,0,0.04938271604938272,47.308641975308646,0)" xlink:href="#am"/><use transform="matrix(0.04938271604938272,0,0,0.04938271604938272,57.18518518518519,0)" xlink:href="#av"/><use transform="matrix(0.04938271604938272,0,0,0.04938271604938272,67.06172839506173,0)" xlink:href="#av"/><use transform="matrix(0.04938271604938272,0,0,0.04938271604938272,76.93827160493828,0)" xlink:href="#aw"/><use transform="matrix(0.04938271604938272,0,0,0.04938271604938272,81.87654320987656,0)" xlink:href="#bi"/><use transform="matrix(0.04938271604938272,0,0,0.04938271604938272,92.69135802469137,0)" xlink:href="#at"/></g><g id="A"><use transform="matrix(0.05,0,0,0.05,0,0)" xlink:href="#ay"/><use transform="matrix(0.05,0,0,0.05,3.95,0)" xlink:href="#az"/></g><g id="B"><use transform="matrix(0.05,0,0,0.05,0,0)" xlink:href="#aL"/><use transform="matrix(0.05,0,0,0.05,10,0)" xlink:href="#aN"/><use transform="matrix(0.05,0,0,0.05,19,0)" xlink:href="#aN"/><use transform="matrix(0.05,0,0,0.05,28,0)" xlink:href="#aG"/><use transform="matrix(0.05,0,0,0.05,38,0)" xlink:href="#aQ"/><use transform="matrix(0.05,0,0,0.05,48,0)" xlink:href="#aE"/><use transform="matrix(0.05,0,0,0.05,58,0)" xlink:href="#aC"/><use transform="matrix(0.05,0,0,0.05,63,0)" xlink:href="#aJ"/></g><path d="M210-169c-67 3-38 105-44 169h-31v-121c0-29-5-50-35-48C34-165 62-65 56 0H25l-1-190h30c1 10-1 24 2 32 10-44 99-50 107 0 11-21 27-35 58-36 85-2 47 119 55 194h-31v-121c0-29-5-49-35-48" id="bj"/><g id="C"><use transform="matrix(0.05,0,0,0.05,0,0)" xlink:href="#aL"/><use transform="matrix(0.05,0,0,0.05,10,0)" xlink:href="#bj"/><use transform="matrix(0.05,0,0,0.05,24.950000000000003,0)" xlink:href="#aG"/><use transform="matrix(0.05,0,0,0.05,34.95,0)" xlink:href="#aQ"/><use transform="matrix(0.05,0,0,0.05,44.95,0)" xlink:href="#aE"/><use transform="matrix(0.05,0,0,0.05,54.95,0)" xlink:href="#aC"/></g><g id="D"><use transform="matrix(0.05,0,0,0.05,0,0)" xlink:href="#az"/><use transform="matrix(0.05,0,0,0.05,10,0)" xlink:href="#ay"/><use transform="matrix(0.05,0,0,0.05,13.949999999999998,0)" xlink:href="#aE"/><use transform="matrix(0.05,0,0,0.05,23.95,0)" xlink:href="#aI"/><use transform="matrix(0.05,0,0,0.05,33.95,0)" xlink:href="#aD"/><use transform="matrix(0.05,0,0,0.05,39.900000000000006,0)" xlink:href="#aG"/></g><g id="E"><use transform="matrix(0.05,0,0,0.05,0,0)" xlink:href="#aN"/><use transform="matrix(0.05,0,0,0.05,9,0)" xlink:href="#aD"/><use transform="matrix(0.05,0,0,0.05,14.949999999999998,0)" xlink:href="#aI"/><use transform="matrix(0.05,0,0,0.05,24.95,0)" xlink:href="#aL"/><use transform="matrix(0.05,0,0,0.05,34.95,0)" xlink:href="#aC"/><use transform="matrix(0.05,0,0,0.05,39.95,0)" xlink:href="#aI"/><use transform="matrix(0.05,0,0,0.05,49.95,0)" xlink:href="#az"/><use transform="matrix(0.05,0,0,0.05,59.95,0)" xlink:href="#aJ"/><use transform="matrix(0.05,0,0,0.05,69.95,0)" xlink:href="#aL"/><use transform="matrix(0.05,0,0,0.05,79.95,0)" xlink:href="#aC"/></g><g id="F"><use transform="matrix(0.05,0,0,0.05,0,0)" xlink:href="#az"/><use transform="matrix(0.05,0,0,0.05,10,0)" xlink:href="#aL"/><use transform="matrix(0.05,0,0,0.05,20,0)" xlink:href="#aC"/><use transform="matrix(0.05,0,0,0.05,25,0)" xlink:href="#aI"/><use transform="matrix(0.05,0,0,0.05,35,0)" xlink:href="#aC"/><use transform="matrix(0.05,0,0,0.05,40,0)" xlink:href="#ay"/><use transform="matrix(0.05,0,0,0.05,43.95,0)" xlink:href="#bj"/><use transform="matrix(0.05,0,0,0.05,58.900000000000006,0)" xlink:href="#aI"/></g><g id="G"><use transform="matrix(0.05,0,0,0.05,0,0)" xlink:href="#aL"/><use transform="matrix(0.05,0,0,0.05,10,0)" xlink:href="#aN"/><use transform="matrix(0.05,0,0,0.05,19,0)" xlink:href="#aC"/><use transform="matrix(0.05,0,0,0.05,24,0)" xlink:href="#aG"/><use transform="matrix(0.05,0,0,0.05,34,0)" xlink:href="#aD"/><use transform="matrix(0.05,0,0,0.05,39.95,0)" xlink:href="#aJ"/><use transform="matrix(0.05,0,0,0.05,49.95,0)" xlink:href="#ay"/><use transform="matrix(0.05,0,0,0.05,53.900000000000006,0)" xlink:href="#aE"/><use transform="matrix(0.05,0,0,0.05,63.900000000000006,0)" xlink:href="#aC"/><use transform="matrix(0.05,0,0,0.05,68.9,0)" xlink:href="#aI"/><use transform="matrix(0.05,0,0,0.05,78.9,0)" xlink:href="#aF"/><use transform="matrix(0.05,0,0,0.05,88.9,0)" xlink:href="#aD"/><use transform="matrix(0.05,0,0,0.05,94.85000000000001,0)" xlink:href="#ay"/><use transform="matrix(0.05,0,0,0.05,98.80000000000001,0)" xlink:href="#aC"/><use transform="matrix(0.05,0,0,0.05,103.80000000000001,0)" xlink:href="#aR"/><use transform="matrix(0.05,0,0,0.05,112.80000000000001,0)" xlink:href="#aJ"/><use transform="matrix(0.05,0,0,0.05,122.80000000000001,0)" xlink:href="#aM"/><use transform="matrix(0.05,0,0,0.05,126.75,0)" xlink:href="#aI"/><use transform="matrix(0.05,0,0,0.05,136.75,0)" xlink:href="#aS"/><use transform="matrix(0.05,0,0,0.05,145.75,0)" xlink:href="#aI"/><use transform="matrix(0.05,0,0,0.05,155.75,0)" xlink:href="#aM"/></g><g id="H"><use transform="matrix(0.05,0,0,0.05,0,0)" xlink:href="#ay"/><use transform="matrix(0.05,0,0,0.05,3.95,0)" xlink:href="#aE"/><use transform="matrix(0.05,0,0,0.05,13.949999999999998,0)" xlink:href="#aC"/></g><path d="M147 0H94L2-248h55l64 206c17-72 42-137 63-206h54" id="bk"/><path d="M25 0v-261h50V0H25" id="bl"/><g id="I"><use transform="matrix(0.04938271604938272,0,0,0.04938271604938272,0,0)" xlink:href="#ah"/><use transform="matrix(0.04938271604938272,0,0,0.04938271604938272,10.370370370370372,0)" xlink:href="#ah"/><use transform="matrix(0.04938271604938272,0,0,0.04938271604938272,20.740740740740744,0)" xlink:href="#bk"/><use transform="matrix(0.04938271604938272,0,0,0.04938271604938272,31.60493827160494,0)" xlink:href="#am"/><use transform="matrix(0.04938271604938272,0,0,0.04938271604938272,41.48148148148149,0)" xlink:href="#bl"/><use transform="matrix(0.04938271604938272,0,0,0.04938271604938272,46.41975308641976,0)" xlink:href="#as"/><use transform="matrix(0.04938271604938272,0,0,0.04938271604938272,57.23456790123457,0)" xlink:href="#al"/></g><path d="M140-251c80 0 125 45 125 126S219 4 139 4C58 4 15-44 15-125s44-126 125-126zm-1 214c52 0 73-35 73-88 0-50-21-86-72-86-52 0-73 35-73 86s22 88 72 88" id="bm"/><path d="M135-194c52 0 70 43 70 98 0 56-19 99-73 100-30 1-46-15-58-35L72 0H24l1-261h50v104c11-23 29-37 60-37zM114-30c31 0 40-27 40-66 0-37-7-63-39-63s-41 28-41 65c0 36 8 64 40 64" id="bn"/><path d="M25-224v-37h50v37H25zM75 22c2 45-34 59-81 51V38c22 5 31-5 31-27v-201h50V22" id="bo"/><g id="J"><use transform="matrix(0.04938271604938272,0,0,0.04938271604938272,0,0)" xlink:href="#bm"/><use transform="matrix(0.04938271604938272,0,0,0.04938271604938272,13.827160493827162,0)" xlink:href="#bn"/><use transform="matrix(0.04938271604938272,0,0,0.04938271604938272,24.641975308641975,0)" xlink:href="#bo"/><use transform="matrix(0.04938271604938272,0,0,0.04938271604938272,29.58024691358025,0)" xlink:href="#al"/><use transform="matrix(0.04938271604938272,0,0,0.04938271604938272,39.45679012345679,0)" xlink:href="#av"/><use transform="matrix(0.04938271604938272,0,0,0.04938271604938272,49.333333333333336,0)" xlink:href="#an"/><use transform="matrix(0.04938271604938272,0,0,0.04938271604938272,55.20987654320988,0)" xlink:href="#aq"/><use transform="matrix(0.04938271604938272,0,0,0.04938271604938272,65.58024691358025,0)" xlink:href="#aq"/></g><path d="M24-248c120-7 223 5 221 122C244-46 201 0 124 0H24v-248zM76-40c74 7 117-18 117-86 0-67-45-88-117-82v168" id="bp"/><g id="K"><use transform="matrix(0.04938271604938272,0,0,0.04938271604938272,0,0)" xlink:href="#bp"/><use transform="matrix(0.04938271604938272,0,0,0.04938271604938272,12.790123456790125,0)" xlink:href="#aw"/><use transform="matrix(0.04938271604938272,0,0,0.04938271604938272,17.7283950617284,0)" xlink:href="#at"/><use transform="matrix(0.04938271604938272,0,0,0.04938271604938272,28.54320987654322,0)" xlink:href="#al"/><use transform="matrix(0.04938271604938272,0,0,0.04938271604938272,38.41975308641976,0)" xlink:href="#ak"/><use transform="matrix(0.04938271604938272,0,0,0.04938271604938272,45.33333333333334,0)" xlink:href="#ap"/></g><g id="L"><use transform="matrix(0.05,0,0,0.05,0,0)" xlink:href="#aL"/><use transform="matrix(0.05,0,0,0.05,10,0)" xlink:href="#bj"/><use transform="matrix(0.05,0,0,0.05,24.950000000000003,0)" xlink:href="#aG"/><use transform="matrix(0.05,0,0,0.05,34.95,0)" xlink:href="#aQ"/><use transform="matrix(0.05,0,0,0.05,44.95,0)" xlink:href="#aE"/><use transform="matrix(0.05,0,0,0.05,54.95,0)" xlink:href="#aC"/></g><g id="M"><use transform="matrix(0.05,0,0,0.05,0,0)" xlink:href="#ba"/><use transform="matrix(0.05,0,0,0.05,5,0)" xlink:href="#aM"/><use transform="matrix(0.05,0,0,0.05,8.95,0)" xlink:href="#aG"/><use transform="matrix(0.05,0,0,0.05,18.95,0)" xlink:href="#aL"/><use transform="matrix(0.05,0,0,0.05,28.950000000000003,0)" xlink:href="#aC"/></g><g id="N"><use transform="matrix(0.05,0,0,0.05,0,0)" xlink:href="#aN"/><use transform="matrix(0.05,0,0,0.05,9,0)" xlink:href="#aQ"/><use transform="matrix(0.05,0,0,0.05,19,0)" xlink:href="#aD"/><use transform="matrix(0.05,0,0,0.05,24.95,0)" xlink:href="#aD"/><use transform="matrix(0.05,0,0,0.05,30.899999999999995,0)" xlink:href="#aI"/><use transform="matrix(0.05,0,0,0.05,40.9,0)" xlink:href="#aR"/><use transform="matrix(0.05,0,0,0.05,49.9,0)" xlink:href="#aE"/><use transform="matrix(0.05,0,0,0.05,59.900000000000006,0)" xlink:href="#aN"/><use transform="matrix(0.05,0,0,0.05,68.9,0)" xlink:href="#aR"/></g><g id="O"><use transform="matrix(0.05,0,0,0.05,0,0)" xlink:href="#aB"/><use transform="matrix(0.05,0,0,0.05,9,0)" xlink:href="#aC"/><use transform="matrix(0.05,0,0,0.05,14,0)" xlink:href="#aD"/><use transform="matrix(0.05,0,0,0.05,19.95,0)" xlink:href="#ay"/><use transform="matrix(0.05,0,0,0.05,23.9,0)" xlink:href="#aE"/><use transform="matrix(0.05,0,0,0.05,33.9,0)" xlink:href="#aF"/></g><path d="M220-157c-53 9-28 100-34 157h-49v-107c1-27-5-49-29-50C55-147 81-57 75 0H25l-1-190h47c2 12-1 28 3 38 10-53 101-56 108 0 13-22 24-43 59-42 82 1 51 116 57 194h-49v-107c-1-25-5-48-29-50" id="bq"/><g id="P"><use transform="matrix(0.07407407407407408,0,0,0.07407407407407408,0,0)" xlink:href="#bp"/><use transform="matrix(0.07407407407407408,0,0,0.07407407407407408,19.185185185185187,0)" xlink:href="#ap"/><use transform="matrix(0.07407407407407408,0,0,0.07407407407407408,35.40740740740741,0)" xlink:href="#bq"/><use transform="matrix(0.07407407407407408,0,0,0.07407407407407408,59.11111111111111,0)" xlink:href="#aw"/><use transform="matrix(0.07407407407407408,0,0,0.07407407407407408,66.51851851851852,0)" xlink:href="#at"/><use transform="matrix(0.07407407407407408,0,0,0.07407407407407408,82.74074074074075,0)" xlink:href="#aw"/><use transform="matrix(0.07407407407407408,0,0,0.07407407407407408,90.14814814814817,0)" xlink:href="#ap"/></g><path d="M35-132v-50h50v50H35zM35 0v-49h50V0H35" id="br"/><g id="Q"><use transform="matrix(0.07407407407407408,0,0,0.07407407407407408,0,0)" xlink:href="#au"/><use transform="matrix(0.07407407407407408,0,0,0.07407407407407408,19.185185185185187,0)" xlink:href="#br"/></g><g id="R"><use transform="matrix(0.07407407407407408,0,0,0.07407407407407408,0,0)" xlink:href="#ar"/><use transform="matrix(0.07407407407407408,0,0,0.07407407407407408,19.185185185185187,0)" xlink:href="#ap"/><use transform="matrix(0.07407407407407408,0,0,0.07407407407407408,35.40740740740741,0)" xlink:href="#ak"/><use transform="matrix(0.07407407407407408,0,0,0.07407407407407408,45.777777777777786,0)" xlink:href="#al"/></g><g id="S"><use transform="matrix(0.07407407407407408,0,0,0.07407407407407408,0,0)" xlink:href="#au"/><use transform="matrix(0.07407407407407408,0,0,0.07407407407407408,19.185185185185187,0)" xlink:href="#am"/><use transform="matrix(0.07407407407407408,0,0,0.07407407407407408,34,0)" xlink:href="#at"/><use transform="matrix(0.07407407407407408,0,0,0.07407407407407408,50.22222222222223,0)" xlink:href="#av"/><use transform="matrix(0.07407407407407408,0,0,0.07407407407407408,65.03703703703704,0)" xlink:href="#am"/><use transform="matrix(0.07407407407407408,0,0,0.07407407407407408,79.85185185185185,0)" xlink:href="#ak"/><use transform="matrix(0.07407407407407408,0,0,0.07407407407407408,90.22222222222221,0)" xlink:href="#aw"/><use transform="matrix(0.07407407407407408,0,0,0.07407407407407408,97.62962962962962,0)" xlink:href="#ap"/></g><path d="M67-93c0 74 22 123 53 168H70C40 30 18-18 18-93s22-123 52-168h50c-32 44-53 94-53 168" id="bs"/><path d="M102-93c0 74-22 123-52 168H0C30 29 54-18 53-93c0-74-22-123-53-168h50c30 45 52 94 52 168" id="bt"/><g id="T"><use transform="matrix(0.07407407407407408,0,0,0.07407407407407408,0,0)" xlink:href="#bs"/><use transform="matrix(0.07407407407407408,0,0,0.07407407407407408,8.814814814814817,0)" xlink:href="#bg"/><use transform="matrix(0.07407407407407408,0,0,0.07407407407407408,23.555555555555557,0)" xlink:href="#ak"/><use transform="matrix(0.07407407407407408,0,0,0.07407407407407408,33.92592592592593,0)" xlink:href="#am"/><use transform="matrix(0.07407407407407408,0,0,0.07407407407407408,48.74074074074075,0)" xlink:href="#at"/><use transform="matrix(0.07407407407407408,0,0,0.07407407407407408,64.96296296296298,0)" xlink:href="#bh"/><use transform="matrix(0.07407407407407408,0,0,0.07407407407407408,79.7777777777778,0)" xlink:href="#am"/><use transform="matrix(0.07407407407407408,0,0,0.07407407407407408,94.59259259259261,0)" xlink:href="#av"/><use transform="matrix(0.07407407407407408,0,0,0.07407407407407408,109.40740740740742,0)" xlink:href="#av"/><use transform="matrix(0.07407407407407408,0,0,0.07407407407407408,124.22222222222223,0)" xlink:href="#aw"/><use transform="matrix(0.07407407407407408,0,0,0.07407407407407408,131.62962962962965,0)" xlink:href="#ap"/><use transform="matrix(0.07407407407407408,0,0,0.07407407407407408,147.85185185185188,0)" xlink:href="#at"/><use transform="matrix(0.07407407407407408,0,0,0.07407407407407408,164.0740740740741,0)" xlink:href="#al"/><use transform="matrix(0.07407407407407408,0,0,0.07407407407407408,178.8888888888889,0)" xlink:href="#bh"/><use transform="matrix(0.07407407407407408,0,0,0.07407407407407408,193.70370370370372,0)" xlink:href="#bt"/></g><path d="M24 0v-248h52V0H24" id="bu"/><path d="M24 0v-248h52v208h133V0H24" id="bv"/><path d="M128 0H69L1-190h53L99-40l48-150h52" id="bw"/><g id="U"><use transform="matrix(0.04938271604938272,0,0,0.04938271604938272,0,0)" xlink:href="#bu"/><use transform="matrix(0.04938271604938272,0,0,0.04938271604938272,4.938271604938272,0)" xlink:href="#at"/><use transform="matrix(0.04938271604938272,0,0,0.04938271604938272,15.753086419753087,0)" xlink:href="#an"/><use transform="matrix(0.04938271604938272,0,0,0.04938271604938272,21.62962962962963,0)" xlink:href="#al"/><use transform="matrix(0.04938271604938272,0,0,0.04938271604938272,31.506172839506174,0)" xlink:href="#aj"/><use transform="matrix(0.04938271604938272,0,0,0.04938271604938272,42.32098765432099,0)" xlink:href="#ak"/><use transform="matrix(0.04938271604938272,0,0,0.04938271604938272,49.23456790123457,0)" xlink:href="#aw"/><use transform="matrix(0.04938271604938272,0,0,0.04938271604938272,54.17283950617284,0)" xlink:href="#an"/><use transform="matrix(0.04938271604938272,0,0,0.04938271604938272,60.04938271604939,0)" xlink:href="#bf"/><use transform="matrix(0.04938271604938272,0,0,0.04938271604938272,69.92592592592592,0)" xlink:href="#bv"/><use transform="matrix(0.04938271604938272,0,0,0.04938271604938272,80.74074074074073,0)" xlink:href="#al"/><use transform="matrix(0.04938271604938272,0,0,0.04938271604938272,90.61728395061728,0)" xlink:href="#bw"/><use transform="matrix(0.04938271604938272,0,0,0.04938271604938272,100.49382716049382,0)" xlink:href="#al"/><use transform="matrix(0.04938271604938272,0,0,0.04938271604938272,110.37037037037035,0)" xlink:href="#bl"/></g><path d="M205 0l-28-72H64L36 0H1l101-248h38L239 0h-34zm-38-99l-47-123c-12 45-31 82-46 123h93" id="bx"/><path d="M153-248C145-148 188 4 80 4 36 3 13-21 6-62l32-5c4 25 16 42 43 43 27 0 39-20 39-49v-147H72v-28h81" id="by"/><path d="M140-251c81 0 123 46 123 126C263-46 219 4 140 4 59 4 17-45 17-125s42-126 123-126zm0 227c63 0 89-41 89-101s-29-99-89-99c-61 0-89 39-89 99S79-25 140-24" id="bz"/><g id="V"><use transform="matrix(0.05,0,0,0.05,0,0)" xlink:href="#bc"/><use transform="matrix(0.05,0,0,0.05,12,0)" xlink:href="#bx"/><use transform="matrix(0.05,0,0,0.05,24,0)" xlink:href="#by"/><use transform="matrix(0.05,0,0,0.05,33,0)" xlink:href="#bz"/></g><path d="M18-150v-26h174v26H18zm0 90v-26h174v26H18" id="bA"/><use transform="matrix(0.05,0,0,0.05,0,0)" xlink:href="#bA" id="W"/><path d="M27 0v-27h64v-190l-56 39v-29l58-41h29v221h61V0H27" id="bB"/><use transform="matrix(0.05,0,0,0.05,0,0)" xlink:href="#bB" id="X"/><path d="M240 0l2-218c-23 76-54 145-80 218h-23L58-218 59 0H30v-248h44l77 211c21-75 51-140 76-211h43V0h-30" id="bC"/><path d="M30 0v-248h187v28H63v79h144v27H63v87h162V0H30" id="bD"/><g id="Y"><use transform="matrix(0.05,0,0,0.05,0,0)" xlink:href="#bC"/><use transform="matrix(0.05,0,0,0.05,14.950000000000001,0)" xlink:href="#bD"/><use transform="matrix(0.05,0,0,0.05,26.950000000000003,0)" xlink:href="#aO"/><use transform="matrix(0.05,0,0,0.05,39.900000000000006,0)" xlink:href="#aT"/><use transform="matrix(0.05,0,0,0.05,44.900000000000006,0)" xlink:href="#bz"/></g><path d="M101-251c82-7 93 87 43 132L82-64C71-53 59-42 53-27h129V0H18c2-99 128-94 128-182 0-28-16-43-45-43s-46 15-49 41l-32-3c6-41 34-60 81-64" id="bE"/><use transform="matrix(0.05,0,0,0.05,0,0)" xlink:href="#bE" id="Z"/><path d="M127-220V0H93v-220H8v-28h204v28h-85" id="bF"/><g id="aa"><use transform="matrix(0.05,0,0,0.05,0,0)" xlink:href="#bx"/><use transform="matrix(0.05,0,0,0.05,12,0)" xlink:href="#aU"/><use transform="matrix(0.05,0,0,0.05,20.65,0)" xlink:href="#bF"/><use transform="matrix(0.05,0,0,0.05,31.25,0)" xlink:href="#bz"/></g><path d="M126-127c33 6 58 20 58 59 0 88-139 92-164 29-3-8-5-16-6-25l32-3c6 27 21 44 54 44 32 0 52-15 52-46 0-38-36-46-79-43v-28c39 1 72-4 72-42 0-27-17-43-46-43-28 0-47 15-49 41l-32-3c6-42 35-63 81-64 48-1 79 21 79 65 0 36-21 52-52 59" id="bG"/><use transform="matrix(0.05,0,0,0.05,0,0)" xlink:href="#bG" id="ab"/><g id="ac"><use transform="matrix(0.04938271604938272,0,0,0.04938271604938272,0,0)" xlink:href="#ah"/><use transform="matrix(0.04938271604938272,0,0,0.04938271604938272,10.370370370370372,0)" xlink:href="#ah"/><use transform="matrix(0.04938271604938272,0,0,0.04938271604938272,20.740740740740744,0)" xlink:href="#aO"/><use transform="matrix(0.04938271604938272,0,0,0.04938271604938272,33.53086419753087,0)" xlink:href="#aG"/><use transform="matrix(0.04938271604938272,0,0,0.04938271604938272,43.40740740740741,0)" xlink:href="#bj"/><use transform="matrix(0.04938271604938272,0,0,0.04938271604938272,58.17283950617284,0)" xlink:href="#aL"/><use transform="matrix(0.04938271604938272,0,0,0.04938271604938272,68.0493827160494,0)" xlink:href="#ay"/><use transform="matrix(0.04938271604938272,0,0,0.04938271604938272,71.95061728395063,0)" xlink:href="#aE"/></g><path d="M185-189c-5-48-123-54-124 2 14 75 158 14 163 119 3 78-121 87-175 55-17-10-28-26-33-46l33-7c5 56 141 63 141-1 0-78-155-14-162-118-5-82 145-84 179-34 5 7 8 16 11 25" id="bH"/><g id="ad"><use transform="matrix(0.04938271604938272,0,0,0.04938271604938272,0,0)" xlink:href="#bH"/><use transform="matrix(0.04938271604938272,0,0,0.04938271604938272,11.851851851851853,0)" xlink:href="#aI"/><use transform="matrix(0.04938271604938272,0,0,0.04938271604938272,21.7283950617284,0)" xlink:href="#aD"/><use transform="matrix(0.04938271604938272,0,0,0.04938271604938272,27.604938271604947,0)" xlink:href="#aS"/><use transform="matrix(0.04938271604938272,0,0,0.04938271604938272,36.49382716049384,0)" xlink:href="#ay"/><use transform="matrix(0.04938271604938272,0,0,0.04938271604938272,40.39506172839507,0)" xlink:href="#aN"/><use transform="matrix(0.04938271604938272,0,0,0.04938271604938272,49.28395061728396,0)" xlink:href="#aI"/><use transform="matrix(0.04938271604938272,0,0,0.04938271604938272,59.16049382716051,0)" xlink:href="#aq"/><use transform="matrix(0.04938271604938272,0,0,0.04938271604938272,69.53086419753087,0)" xlink:href="#aq"/></g><path d="M24-248c93 1 206-16 204 79-1 75-69 88-152 82V0H24v-248zm52 121c47 0 100 7 100-41 0-47-54-39-100-39v80" id="bI"/><path d="M88-194c31-1 46 15 58 34l-1-101h50l1 261h-48c-2-10 0-23-3-31C134-8 116 4 84 4 32 4 16-41 15-95c0-56 19-97 73-99zm17 164c33 0 40-30 41-66 1-37-9-64-41-64s-38 30-39 65c0 43 13 65 39 65" id="bJ"/><path d="M121-226c-27-7-43 5-38 36h38v33H83V0H34v-157H6v-33h28c-9-59 32-81 87-68v32" id="bK"/><g id="ae"><use transform="matrix(0.04938271604938272,0,0,0.04938271604938272,0,0)" xlink:href="#bI"/><use transform="matrix(0.04938271604938272,0,0,0.04938271604938272,11.851851851851853,0)" xlink:href="#ak"/><use transform="matrix(0.04938271604938272,0,0,0.04938271604938272,18.765432098765434,0)" xlink:href="#ap"/><use transform="matrix(0.04938271604938272,0,0,0.04938271604938272,29.58024691358025,0)" xlink:href="#av"/><use transform="matrix(0.04938271604938272,0,0,0.04938271604938272,39.45679012345679,0)" xlink:href="#al"/><use transform="matrix(0.04938271604938272,0,0,0.04938271604938272,49.333333333333336,0)" xlink:href="#bh"/><use transform="matrix(0.04938271604938272,0,0,0.04938271604938272,59.20987654320988,0)" xlink:href="#am"/><use transform="matrix(0.04938271604938272,0,0,0.04938271604938272,69.08641975308643,0)" xlink:href="#bJ"/><use transform="matrix(0.04938271604938272,0,0,0.04938271604938272,79.90123456790124,0)" xlink:href="#ap"/><use transform="matrix(0.04938271604938272,0,0,0.04938271604938272,90.71604938271605,0)" xlink:href="#ak"/><use transform="matrix(0.04938271604938272,0,0,0.04938271604938272,97.62962962962963,0)" xlink:href="#bg"/><use transform="matrix(0.04938271604938272,0,0,0.04938271604938272,107.45679012345677,0)" xlink:href="#ak"/><use transform="matrix(0.04938271604938272,0,0,0.04938271604938272,114.37037037037035,0)" xlink:href="#am"/><use transform="matrix(0.04938271604938272,0,0,0.04938271604938272,124.2469135802469,0)" xlink:href="#at"/><use transform="matrix(0.04938271604938272,0,0,0.04938271604938272,135.06172839506172,0)" xlink:href="#bh"/><use transform="matrix(0.04938271604938272,0,0,0.04938271604938272,144.93827160493828,0)" xlink:href="#bK"/><use transform="matrix(0.04938271604938272,0,0,0.04938271604938272,150.8148148148148,0)" xlink:href="#al"/><use transform="matrix(0.04938271604938272,0,0,0.04938271604938272,160.69135802469134,0)" xlink:href="#ak"/><use transform="matrix(0.04938271604938272,0,0,0.04938271604938272,167.6049382716049,0)" xlink:href="#al"/><use transform="matrix(0.04938271604938272,0,0,0.04938271604938272,177.48148148148147,0)" xlink:href="#at"/><use transform="matrix(0.04938271604938272,0,0,0.04938271604938272,188.29629629629628,0)" xlink:href="#av"/><use transform="matrix(0.04938271604938272,0,0,0.04938271604938272,198.1728395061728,0)" xlink:href="#aw"/><use transform="matrix(0.04938271604938272,0,0,0.04938271604938272,203.1111111111111,0)" xlink:href="#am"/></g><path d="M33 0v-38h34V0H33" id="bL"/><g id="af"><use transform="matrix(0.05,0,0,0.05,0,0)" xlink:href="#az"/><use transform="matrix(0.05,0,0,0.05,10,0)" xlink:href="#aI"/><use transform="matrix(0.05,0,0,0.05,20,0)" xlink:href="#aV"/><use transform="matrix(0.05,0,0,0.05,30,0)" xlink:href="#aG"/><use transform="matrix(0.05,0,0,0.05,40,0)" xlink:href="#aB"/><use transform="matrix(0.05,0,0,0.05,49,0)" xlink:href="#ay"/><use transform="matrix(0.05,0,0,0.05,52.95,0)" xlink:href="#aC"/><use transform="matrix(0.05,0,0,0.05,57.95,0)" xlink:href="#aW"/><use transform="matrix(0.05,0,0,0.05,63.900000000000006,0)" xlink:href="#bL"/><use transform="matrix(0.05,0,0,0.05,68.9,0)" xlink:href="#bL"/><use transform="matrix(0.05,0,0,0.05,73.9,0)" xlink:href="#bL"/><use transform="matrix(0.05,0,0,0.05,78.9,0)" xlink:href="#aY"/></g><g id="ag"><use transform="matrix(0.05,0,0,0.05,0,0)" xlink:href="#bF"/><use transform="matrix(0.05,0,0,0.05,10.3,0)" xlink:href="#aD"/><use transform="matrix(0.05,0,0,0.05,16.25,0)" xlink:href="#aL"/><use transform="matrix(0.05,0,0,0.05,26.25,0)" xlink:href="#aE"/><use transform="matrix(0.05,0,0,0.05,36.25,0)" xlink:href="#aB"/><use transform="matrix(0.05,0,0,0.05,45.25,0)" xlink:href="#aL"/><use transform="matrix(0.05,0,0,0.05,55.25,0)" xlink:href="#aN"/><use transform="matrix(0.05,0,0,0.05,64.25,0)" xlink:href="#aN"/><use transform="matrix(0.05,0,0,0.05,73.25,0)" xlink:href="#ay"/><use transform="matrix(0.05,0,0,0.05,77.2,0)" xlink:href="#aG"/><use transform="matrix(0.05,0,0,0.05,87.2,0)" xlink:href="#aE"/></g></defs></g></svg>