<svg xmlns="http://www.w3.org/2000/svg" xmlns:xlink="http://www.w3.org/1999/xlink" xmlns:lucid="lucid" width="571" height="673"><g transform="translate(-2277 166)" lucid:page-tab-id="mKE79J_kdydz"><path d="M-2486-1710h7618v3580h-7618z" fill="#fff"/><path d="M2321.2-100.3a5 5 0 0 1 5-5h463.2a5 5 0 0 1 5 5v22.02a5 5 0 0 1-5 5h-463.2a5 5 0 0 1-5-5z" fill="none"/><use xlink:href="#a" transform="matrix(1,0,0,1,2321.200160460904,-105.28837090138882) translate(0 21.833333333333336)"/><use xlink:href="#b" transform="matrix(1,0,0,1,2321.200160460904,-105.28837090138882) translate(113.77777777777779 21.833333333333336)"/><use xlink:href="#c" transform="matrix(1,0,0,1,2321.200160460904,-105.28837090138882) translate(149.1851851851852 21.833333333333336)"/><use xlink:href="#d" transform="matrix(1,0,0,1,2321.200160460904,-105.28837090138882) translate(304.5185185185186 21.833333333333336)"/><use xlink:href="#e" transform="matrix(1,0,0,1,2321.200160460904,-105.28837090138882) translate(326.7407407407408 21.833333333333336)"/><use xlink:href="#f" transform="matrix(1,0,0,1,2321.200160460904,-105.28837090138882) translate(430.2222222222223 21.833333333333336)"/><path d="M2383.5-45.35a5 5 0 0 1 5-5h350a5 5 0 0 1 5 5v213a5 5 0 0 1-5 5h-350a5 5 0 0 1-5-5z" stroke="#000" stroke-width="2" fill="#fff"/><path d="M2383.5 11.1h360m-360 102.3h360" stroke="#000" stroke-width="2" fill="none"/><use xlink:href="#g" transform="matrix(1,0,0,1,2391.4930727830742,-42.35289257499858) translate(89.08641975308642 14.492063492063489)"/><use xlink:href="#h" transform="matrix(1,0,0,1,2391.4930727830742,-42.35289257499858) translate(196.69135802469134 14.492063492063489)"/><use xlink:href="#i" transform="matrix(1,0,0,1,2391.4930727830742,-42.35289257499858) translate(103.01234567901234 38.61904761904762)"/><use xlink:href="#j" transform="matrix(1,0,0,1,2391.4930727830742,-42.35289257499858) translate(162.12345679012347 38.61904761904762)"/><use xlink:href="#k" transform="matrix(1,0,0,1,2395.4930727830742,19.107424885318892) translate(0 25.5)"/><use xlink:href="#l" transform="matrix(1,0,0,1,2395.4930727830742,19.107424885318892) translate(15.5 25.5)"/><use xlink:href="#m" transform="matrix(1,0,0,1,2395.4930727830742,19.107424885318892) translate(83.35000000000001 25.5)"/><use xlink:href="#n" transform="matrix(1,0,0,1,2395.4930727830742,19.107424885318892) translate(98.85000000000001 25.5)"/><use xlink:href="#k" transform="matrix(1,0,0,1,2395.4930727830742,19.107424885318892) translate(0 47.1)"/><use xlink:href="#o" transform="matrix(1,0,0,1,2395.4930727830742,19.107424885318892) translate(15.5 47.1)"/><use xlink:href="#p" transform="matrix(1,0,0,1,2395.4930727830742,19.107424885318892) translate(70.45 47.1)"/><use xlink:href="#k" transform="matrix(1,0,0,1,2395.4930727830742,19.107424885318892) translate(0 68.7)"/><use xlink:href="#q" transform="matrix(1,0,0,1,2395.4930727830742,19.107424885318892) translate(15.5 68.7)"/><use xlink:href="#r" transform="matrix(1,0,0,1,2395.4930727830742,19.107424885318892) translate(174.2 68.7)"/><path d="M2383.32 270.12a5 5 0 0 1 5-5h350a5 5 0 0 1 5 5v170a5 5 0 0 1-5 5h-350a5 5 0 0 1-5-5z" stroke="#000" stroke-width="2" fill="#fff"/><path d="M2383.32 326.85h360m-360 59.1h360" stroke="#000" stroke-width="2" fill="none"/><g><use xlink:href="#s" transform="matrix(1,0,0,1,2391.3156318914544,273.12220091243285) translate(88.66666666666666 14.358730158730156)"/><use xlink:href="#t" transform="matrix(1,0,0,1,2391.3156318914544,273.12220091243285) translate(175.4320987654321 14.358730158730156)"/><use xlink:href="#u" transform="matrix(1,0,0,1,2391.3156318914544,273.12220091243285) translate(77.67500000000001 38.663492063492065)"/></g><g><use xlink:href="#k" transform="matrix(1,0,0,1,2395.3156318914544,393.949185039417) translate(0 25.6)"/><use xlink:href="#v" transform="matrix(1,0,0,1,2395.3156318914544,393.949185039417) translate(15.5 25.6)"/><use xlink:href="#w" transform="matrix(1,0,0,1,2395.3156318914544,393.949185039417) translate(171.25 25.6)"/></g><path d="M2563.5 174.65v3.68m0 7.35v7.36m0 7.36v7.36m0 7.36v3.68a.1.1 0 0 1-.1.08.1.1 0 0 0-.08.1v4.34m0 8.7v8.68m0 8.7v4.34" stroke="#000" stroke-width="2" fill="none"/><path d="M2564.47 174.67h-1.95v-1.02h1.95z" stroke="#000" stroke-width=".05"/><path d="M2573.32 244.8l-10 17.32-10-17.32m10 17.32v-8.5" stroke="#000" stroke-width="2" fill="none"/><defs><path d="M24-248c120-7 223 5 221 122C244-46 201 0 124 0H24v-248zM76-40c74 7 117-18 117-86 0-67-45-88-117-82v168" id="x"/><path d="M110-194c64 0 96 36 96 99 0 64-35 99-97 99-61 0-95-36-95-99 0-62 34-99 96-99zm-1 164c35 0 45-28 45-65 0-40-10-65-43-65-34 0-45 26-45 65 0 36 10 65 43 65" id="y"/><path d="M220-157c-53 9-28 100-34 157h-49v-107c1-27-5-49-29-50C55-147 81-57 75 0H25l-1-190h47c2 12-1 28 3 38 10-53 101-56 108 0 13-22 24-43 59-42 82 1 51 116 57 194h-49v-107c-1-25-5-48-29-50" id="z"/><path d="M25-224v-37h50v37H25zM25 0v-190h50V0H25" id="A"/><path d="M135-194c87-1 58 113 63 194h-50c-7-57 23-157-34-157-59 0-34 97-39 157H25l-1-190h47c2 12-1 28 3 38 12-26 28-41 61-42" id="B"/><g id="a"><use transform="matrix(0.07407407407407408,0,0,0.07407407407407408,0,0)" xlink:href="#x"/><use transform="matrix(0.07407407407407408,0,0,0.07407407407407408,19.185185185185187,0)" xlink:href="#y"/><use transform="matrix(0.07407407407407408,0,0,0.07407407407407408,35.40740740740741,0)" xlink:href="#z"/><use transform="matrix(0.07407407407407408,0,0,0.07407407407407408,59.11111111111111,0)" xlink:href="#A"/><use transform="matrix(0.07407407407407408,0,0,0.07407407407407408,66.51851851851852,0)" xlink:href="#B"/><use transform="matrix(0.07407407407407408,0,0,0.07407407407407408,82.74074074074075,0)" xlink:href="#A"/><use transform="matrix(0.07407407407407408,0,0,0.07407407407407408,90.14814814814817,0)" xlink:href="#y"/></g><path d="M67-125c0 53 21 87 73 88 37 1 54-22 65-47l45 17C233-25 199 4 140 4 58 4 20-42 15-125 8-235 124-281 211-232c18 10 29 29 36 50l-46 12c-8-25-30-41-62-41-52 0-71 34-72 86" id="C"/><path d="M35-132v-50h50v50H35zM35 0v-49h50V0H35" id="D"/><g id="b"><use transform="matrix(0.07407407407407408,0,0,0.07407407407407408,0,0)" xlink:href="#C"/><use transform="matrix(0.07407407407407408,0,0,0.07407407407407408,19.185185185185187,0)" xlink:href="#D"/></g><path d="M24 0v-248h52V0H24" id="E"/><path d="M128 0H69L1-190h53L99-40l48-150h52" id="F"/><path d="M185-48c-13 30-37 53-82 52C43 2 14-33 14-96s30-98 90-98c62 0 83 45 84 108H66c0 31 8 55 39 56 18 0 30-7 34-22zm-45-69c5-46-57-63-70-21-2 6-4 13-4 21h74" id="G"/><path d="M135-150c-39-12-60 13-60 57V0H25l-1-190h47c2 13-1 29 3 40 6-28 27-53 61-41v41" id="H"/><path d="M137-138c1-29-70-34-71-4 15 46 118 7 119 86 1 83-164 76-172 9l43-7c4 19 20 25 44 25 33 8 57-30 24-41C81-84 22-81 20-136c-2-80 154-74 161-7" id="I"/><g id="c"><use transform="matrix(0.07407407407407408,0,0,0.07407407407407408,0,0)" xlink:href="#E"/><use transform="matrix(0.07407407407407408,0,0,0.07407407407407408,7.407407407407408,0)" xlink:href="#B"/><use transform="matrix(0.07407407407407408,0,0,0.07407407407407408,23.629629629629633,0)" xlink:href="#F"/><use transform="matrix(0.07407407407407408,0,0,0.07407407407407408,38.44444444444445,0)" xlink:href="#G"/><use transform="matrix(0.07407407407407408,0,0,0.07407407407407408,53.25925925925927,0)" xlink:href="#H"/><use transform="matrix(0.07407407407407408,0,0,0.07407407407407408,63.62962962962964,0)" xlink:href="#I"/><use transform="matrix(0.07407407407407408,0,0,0.07407407407407408,78.44444444444446,0)" xlink:href="#A"/><use transform="matrix(0.07407407407407408,0,0,0.07407407407407408,85.85185185185186,0)" xlink:href="#y"/><use transform="matrix(0.07407407407407408,0,0,0.07407407407407408,102.07407407407409,0)" xlink:href="#B"/><use transform="matrix(0.07407407407407408,0,0,0.07407407407407408,118.29629629629632,0)" xlink:href="#G"/><use transform="matrix(0.07407407407407408,0,0,0.07407407407407408,133.11111111111114,0)" xlink:href="#I"/></g><path d="M123 10C108 53 80 86 19 72V37c35 8 53-11 59-39L3-190h52l48 148c12-52 28-100 44-148h51" id="J"/><use transform="matrix(0.07407407407407408,0,0,0.07407407407407408,0,0)" xlink:href="#J" id="d"/><path d="M199 0l-22-63H83L61 0H9l90-248h61L250 0h-51zm-33-102l-36-108c-10 38-24 72-36 108h72" id="K"/><path d="M190-63c-7 42-38 67-86 67-59 0-84-38-90-98-12-110 154-137 174-36l-49 2c-2-19-15-32-35-32-30 0-35 28-38 64-6 74 65 87 74 30" id="L"/><path d="M115-3C79 11 28 4 28-45v-112H4v-33h27l15-45h31v45h36v33H77v99c-1 23 16 31 38 25v30" id="M"/><g id="e"><use transform="matrix(0.07407407407407408,0,0,0.07407407407407408,0,0)" xlink:href="#K"/><use transform="matrix(0.07407407407407408,0,0,0.07407407407407408,19.185185185185187,0)" xlink:href="#L"/><use transform="matrix(0.07407407407407408,0,0,0.07407407407407408,34,0)" xlink:href="#M"/><use transform="matrix(0.07407407407407408,0,0,0.07407407407407408,42.814814814814824,0)" xlink:href="#A"/><use transform="matrix(0.07407407407407408,0,0,0.07407407407407408,50.22222222222223,0)" xlink:href="#F"/><use transform="matrix(0.07407407407407408,0,0,0.07407407407407408,65.03703703703704,0)" xlink:href="#y"/><use transform="matrix(0.07407407407407408,0,0,0.07407407407407408,81.25925925925927,0)" xlink:href="#I"/></g><path d="M147 0H94L2-248h55l64 206c17-72 42-137 63-206h54" id="N"/><path d="M24-248c93 1 206-16 204 79-1 75-69 88-152 82V0H24v-248zm52 121c47 0 100 7 100-41 0-47-54-39-100-39v80" id="O"/><g id="f"><use transform="matrix(0.07407407407407408,0,0,0.07407407407407408,0,0)" xlink:href="#N"/><use transform="matrix(0.07407407407407408,0,0,0.07407407407407408,17.77777777777778,0)" xlink:href="#E"/><use transform="matrix(0.07407407407407408,0,0,0.07407407407407408,25.185185185185187,0)" xlink:href="#O"/></g><path d="M15-91v-56l181-69v40L49-119l147 57v40" id="P"/><path d="M205 0l-28-72H64L36 0H1l101-248h38L239 0h-34zm-38-99l-47-123c-12 45-31 82-46 123h93" id="Q"/><path d="M177-190C167-65 218 103 67 71c-23-6-38-20-44-43l32-5c15 47 100 32 89-28v-30C133-14 115 1 83 1 29 1 15-40 15-95c0-56 16-97 71-98 29-1 48 16 59 35 1-10 0-23 2-32h30zM94-22c36 0 50-32 50-73 0-42-14-75-50-75-39 0-46 34-46 75s6 73 46 73" id="R"/><path d="M114-163C36-179 61-72 57 0H25l-1-190h30c1 12-1 29 2 39 6-27 23-49 58-41v29" id="S"/><path d="M100-194c63 0 86 42 84 106H49c0 40 14 67 53 68 26 1 43-12 49-29l28 8c-11 28-37 45-77 45C44 4 14-33 15-96c1-61 26-98 85-98zm52 81c6-60-76-77-97-28-3 7-6 17-6 28h103" id="T"/><path d="M141-36C126-15 110 5 73 4 37 3 15-17 15-53c-1-64 63-63 125-63 3-35-9-54-41-54-24 1-41 7-42 31l-33-3c5-37 33-52 76-52 45 0 72 20 72 64v82c-1 20 7 32 28 27v20c-31 9-61-2-59-35zM48-53c0 20 12 33 32 33 41-3 63-29 60-74-43 2-92-5-92 41" id="U"/><path d="M59-47c-2 24 18 29 38 22v24C64 9 27 4 27-40v-127H5v-23h24l9-43h21v43h35v23H59v120" id="V"/><g id="g"><use transform="matrix(0.04938271604938272,0,0,0.04938271604938272,0,0)" xlink:href="#P"/><use transform="matrix(0.04938271604938272,0,0,0.04938271604938272,10.370370370370372,0)" xlink:href="#P"/><use transform="matrix(0.04938271604938272,0,0,0.04938271604938272,20.740740740740744,0)" xlink:href="#Q"/><use transform="matrix(0.04938271604938272,0,0,0.04938271604938272,32.592592592592595,0)" xlink:href="#R"/><use transform="matrix(0.04938271604938272,0,0,0.04938271604938272,42.46913580246914,0)" xlink:href="#R"/><use transform="matrix(0.04938271604938272,0,0,0.04938271604938272,52.345679012345684,0)" xlink:href="#S"/><use transform="matrix(0.04938271604938272,0,0,0.04938271604938272,58.22222222222223,0)" xlink:href="#T"/><use transform="matrix(0.04938271604938272,0,0,0.04938271604938272,68.09876543209877,0)" xlink:href="#R"/><use transform="matrix(0.04938271604938272,0,0,0.04938271604938272,77.97530864197532,0)" xlink:href="#U"/><use transform="matrix(0.04938271604938272,0,0,0.04938271604938272,87.85185185185186,0)" xlink:href="#V"/><use transform="matrix(0.04938271604938272,0,0,0.04938271604938272,92.79012345679013,0)" xlink:href="#T"/></g><path d="M233-177c-1 41-23 64-60 70L243 0h-38l-65-103H63V0H30v-248c88 3 205-21 203 71zM63-129c60-2 137 13 137-47 0-61-80-42-137-45v92" id="W"/><path d="M100-194c62-1 85 37 85 99 1 63-27 99-86 99S16-35 15-95c0-66 28-99 85-99zM99-20c44 1 53-31 53-75 0-43-8-75-51-75s-53 32-53 75 10 74 51 75" id="X"/><path d="M15-22v-40l146-57-146-57v-40l181 69v56" id="Y"/><g id="h"><use transform="matrix(0.04938271604938272,0,0,0.04938271604938272,0,0)" xlink:href="#W"/><use transform="matrix(0.04938271604938272,0,0,0.04938271604938272,12.790123456790125,0)" xlink:href="#X"/><use transform="matrix(0.04938271604938272,0,0,0.04938271604938272,22.66666666666667,0)" xlink:href="#X"/><use transform="matrix(0.04938271604938272,0,0,0.04938271604938272,32.543209876543216,0)" xlink:href="#V"/><use transform="matrix(0.04938271604938272,0,0,0.04938271604938272,37.48148148148149,0)" xlink:href="#Y"/><use transform="matrix(0.04938271604938272,0,0,0.04938271604938272,47.85185185185186,0)" xlink:href="#Y"/></g><g id="i"><use transform="matrix(0.04938271604938272,0,0,0.04938271604938272,0,0)" xlink:href="#K"/><use transform="matrix(0.04938271604938272,0,0,0.04938271604938272,12.790123456790125,0)" xlink:href="#L"/><use transform="matrix(0.04938271604938272,0,0,0.04938271604938272,22.66666666666667,0)" xlink:href="#M"/><use transform="matrix(0.04938271604938272,0,0,0.04938271604938272,28.54320987654322,0)" xlink:href="#A"/><use transform="matrix(0.04938271604938272,0,0,0.04938271604938272,33.48148148148149,0)" xlink:href="#F"/><use transform="matrix(0.04938271604938272,0,0,0.04938271604938272,43.35802469135803,0)" xlink:href="#y"/></g><path d="M110-194c64 0 96 36 96 99 0 64-35 99-97 99-61 0-95-36-95-99 0-62 34-99 96-99zm-1 164c35 0 45-28 45-65 0-40-10-65-43-65-34 0-45 26-45 65 0 36 10 65 43 65zM81-208v-5l45-51h45v8l-60 48H81" id="Z"/><g id="j"><use transform="matrix(0.04938271604938272,0,0,0.04938271604938272,0,0)" xlink:href="#A"/><use transform="matrix(0.04938271604938272,0,0,0.04938271604938272,4.938271604938272,0)" xlink:href="#B"/><use transform="matrix(0.04938271604938272,0,0,0.04938271604938272,15.753086419753087,0)" xlink:href="#F"/><use transform="matrix(0.04938271604938272,0,0,0.04938271604938272,25.629629629629633,0)" xlink:href="#G"/><use transform="matrix(0.04938271604938272,0,0,0.04938271604938272,35.50617283950618,0)" xlink:href="#H"/><use transform="matrix(0.04938271604938272,0,0,0.04938271604938272,42.41975308641976,0)" xlink:href="#I"/><use transform="matrix(0.04938271604938272,0,0,0.04938271604938272,52.2962962962963,0)" xlink:href="#A"/><use transform="matrix(0.04938271604938272,0,0,0.04938271604938272,57.23456790123457,0)" xlink:href="#Z"/><use transform="matrix(0.04938271604938272,0,0,0.04938271604938272,68.0493827160494,0)" xlink:href="#B"/></g><path d="M118-107v75H92v-75H18v-26h74v-75h26v75h74v26h-74" id="aa"/><use transform="matrix(0.05,0,0,0.05,0,0)" xlink:href="#aa" id="k"/><path d="M24-231v-30h32v30H24zM24 0v-190h32V0H24" id="ab"/><path d="M85-194c31 0 48 13 60 33l-1-100h32l1 261h-30c-2-10 0-23-3-31C134-8 116 4 85 4 32 4 16-35 15-94c0-66 23-100 70-100zm9 24c-40 0-46 34-46 75 0 40 6 74 45 74 42 0 51-32 51-76 0-42-9-74-50-73" id="ac"/><path d="M33-154v-36h34v36H33zM33 0v-36h34V0H33" id="ad"/><path d="M135-143c-3-34-86-38-87 0 15 53 115 12 119 90S17 21 10-45l28-5c4 36 97 45 98 0-10-56-113-15-118-90-4-57 82-63 122-42 12 7 21 19 24 35" id="ae"/><path d="M117-194c89-4 53 116 60 194h-32v-121c0-31-8-49-39-48C34-167 62-67 57 0H25l-1-190h30c1 10-1 24 2 32 11-22 29-35 61-36" id="af"/><g id="l"><use transform="matrix(0.05,0,0,0.05,0,0)" xlink:href="#ab"/><use transform="matrix(0.05,0,0,0.05,3.95,0)" xlink:href="#ac"/><use transform="matrix(0.05,0,0,0.05,13.949999999999998,0)" xlink:href="#ad"/><use transform="matrix(0.05,0,0,0.05,18.95,0)" xlink:href="#ae"/><use transform="matrix(0.05,0,0,0.05,27.950000000000003,0)" xlink:href="#V"/><use transform="matrix(0.05,0,0,0.05,32.95,0)" xlink:href="#S"/><use transform="matrix(0.05,0,0,0.05,38.900000000000006,0)" xlink:href="#ab"/><use transform="matrix(0.05,0,0,0.05,42.85000000000001,0)" xlink:href="#af"/><use transform="matrix(0.05,0,0,0.05,52.85,0)" xlink:href="#R"/></g><path d="M18-150v-26h174v26H18zm0 90v-26h174v26H18" id="ag"/><use transform="matrix(0.05,0,0,0.05,0,0)" xlink:href="#ag" id="m"/><path d="M101-234c-31-9-42 10-38 44h38v23H63V0H32v-167H5v-23h27c-7-52 17-82 69-68v24" id="ah"/><path d="M84 4C-5 8 30-112 23-190h32v120c0 31 7 50 39 49 72-2 45-101 50-169h31l1 190h-30c-1-10 1-25-2-33-11 22-28 36-60 37" id="ai"/><path d="M24 0v-261h32V0H24" id="aj"/><path d="M137 0h-34L2-248h35l83 218 83-218h36" id="ak"/><g id="n"><use transform="matrix(0.05,0,0,0.05,0,0)" xlink:href="#ac"/><use transform="matrix(0.05,0,0,0.05,10,0)" xlink:href="#T"/><use transform="matrix(0.05,0,0,0.05,20,0)" xlink:href="#ah"/><use transform="matrix(0.05,0,0,0.05,25,0)" xlink:href="#U"/><use transform="matrix(0.05,0,0,0.05,35,0)" xlink:href="#ai"/><use transform="matrix(0.05,0,0,0.05,45,0)" xlink:href="#aj"/><use transform="matrix(0.05,0,0,0.05,48.95,0)" xlink:href="#V"/><use transform="matrix(0.05,0,0,0.05,53.95,0)" xlink:href="#ak"/><use transform="matrix(0.05,0,0,0.05,64.6,0)" xlink:href="#U"/><use transform="matrix(0.05,0,0,0.05,74.6,0)" xlink:href="#aj"/><use transform="matrix(0.05,0,0,0.05,78.55,0)" xlink:href="#ai"/><use transform="matrix(0.05,0,0,0.05,88.55,0)" xlink:href="#T"/></g><path d="M210-169c-67 3-38 105-44 169h-31v-121c0-29-5-50-35-48C34-165 62-65 56 0H25l-1-190h30c1 10-1 24 2 32 10-44 99-50 107 0 11-21 27-35 58-36 85-2 47 119 55 194h-31v-121c0-29-5-49-35-48" id="al"/><g id="o"><use transform="matrix(0.05,0,0,0.05,0,0)" xlink:href="#af"/><use transform="matrix(0.05,0,0,0.05,10,0)" xlink:href="#U"/><use transform="matrix(0.05,0,0,0.05,20,0)" xlink:href="#al"/><use transform="matrix(0.05,0,0,0.05,34.95,0)" xlink:href="#T"/><use transform="matrix(0.05,0,0,0.05,44.95,0)" xlink:href="#ad"/></g><g id="p"><use transform="matrix(0.05,0,0,0.05,0,0)" xlink:href="#ae"/><use transform="matrix(0.05,0,0,0.05,9,0)" xlink:href="#V"/><use transform="matrix(0.05,0,0,0.05,14,0)" xlink:href="#S"/><use transform="matrix(0.05,0,0,0.05,19.95,0)" xlink:href="#ab"/><use transform="matrix(0.05,0,0,0.05,23.9,0)" xlink:href="#af"/><use transform="matrix(0.05,0,0,0.05,33.9,0)" xlink:href="#R"/></g><path d="M96-169c-40 0-48 33-48 73s9 75 48 75c24 0 41-14 43-38l32 2c-6 37-31 61-74 61-59 0-76-41-82-99-10-93 101-131 147-64 4 7 5 14 7 22l-32 3c-4-21-16-35-41-35" id="am"/><path d="M-5 72V49h209v23H-5" id="an"/><path d="M108 0H70L1-190h34L89-25l56-165h34" id="ao"/><g id="q"><use transform="matrix(0.05,0,0,0.05,0,0)" xlink:href="#am"/><use transform="matrix(0.05,0,0,0.05,9,0)" xlink:href="#aj"/><use transform="matrix(0.05,0,0,0.05,12.949999999999998,0)" xlink:href="#U"/><use transform="matrix(0.05,0,0,0.05,22.95,0)" xlink:href="#ae"/><use transform="matrix(0.05,0,0,0.05,31.950000000000003,0)" xlink:href="#ae"/><use transform="matrix(0.05,0,0,0.05,40.95,0)" xlink:href="#ab"/><use transform="matrix(0.05,0,0,0.05,44.900000000000006,0)" xlink:href="#ah"/><use transform="matrix(0.05,0,0,0.05,49.900000000000006,0)" xlink:href="#ab"/><use transform="matrix(0.05,0,0,0.05,53.85,0)" xlink:href="#am"/><use transform="matrix(0.05,0,0,0.05,62.85,0)" xlink:href="#U"/><use transform="matrix(0.05,0,0,0.05,72.85000000000001,0)" xlink:href="#V"/><use transform="matrix(0.05,0,0,0.05,77.85000000000001,0)" xlink:href="#ab"/><use transform="matrix(0.05,0,0,0.05,81.80000000000001,0)" xlink:href="#X"/><use transform="matrix(0.05,0,0,0.05,91.80000000000001,0)" xlink:href="#af"/><use transform="matrix(0.05,0,0,0.05,101.80000000000001,0)" xlink:href="#an"/><use transform="matrix(0.05,0,0,0.05,111.80000000000001,0)" xlink:href="#aj"/><use transform="matrix(0.05,0,0,0.05,115.75,0)" xlink:href="#T"/><use transform="matrix(0.05,0,0,0.05,125.75,0)" xlink:href="#ao"/><use transform="matrix(0.05,0,0,0.05,134.75,0)" xlink:href="#T"/><use transform="matrix(0.05,0,0,0.05,144.75,0)" xlink:href="#aj"/><use transform="matrix(0.05,0,0,0.05,148.7,0)" xlink:href="#ad"/></g><g id="r"><use transform="matrix(0.05,0,0,0.05,0,0)" xlink:href="#ab"/><use transform="matrix(0.05,0,0,0.05,3.95,0)" xlink:href="#af"/><use transform="matrix(0.05,0,0,0.05,13.949999999999998,0)" xlink:href="#V"/></g><path d="M18-100v-36l175-74v27L42-118l151 64v27" id="ap"/><path d="M30-248c118-7 216 8 213 122C240-48 200 0 122 0H30v-248zM63-27c89 8 146-16 146-99s-60-101-146-95v194" id="aq"/><g id="s"><use transform="matrix(0.04938271604938272,0,0,0.04938271604938272,0,0)" xlink:href="#ap"/><use transform="matrix(0.04938271604938272,0,0,0.04938271604938272,10.370370370370372,0)" xlink:href="#ap"/><use transform="matrix(0.04938271604938272,0,0,0.04938271604938272,20.740740740740744,0)" xlink:href="#aq"/><use transform="matrix(0.04938271604938272,0,0,0.04938271604938272,33.53086419753087,0)" xlink:href="#X"/><use transform="matrix(0.04938271604938272,0,0,0.04938271604938272,43.40740740740741,0)" xlink:href="#al"/><use transform="matrix(0.04938271604938272,0,0,0.04938271604938272,58.17283950617284,0)" xlink:href="#U"/><use transform="matrix(0.04938271604938272,0,0,0.04938271604938272,68.0493827160494,0)" xlink:href="#ab"/><use transform="matrix(0.04938271604938272,0,0,0.04938271604938272,71.95061728395063,0)" xlink:href="#af"/></g><path d="M185-189c-5-48-123-54-124 2 14 75 158 14 163 119 3 78-121 87-175 55-17-10-28-26-33-46l33-7c5 56 141 63 141-1 0-78-155-14-162-118-5-82 145-84 179-34 5 7 8 16 11 25" id="ar"/><path d="M18-27v-27l151-64-151-65v-27l175 74v36" id="as"/><g id="t"><use transform="matrix(0.04938271604938272,0,0,0.04938271604938272,0,0)" xlink:href="#ar"/><use transform="matrix(0.04938271604938272,0,0,0.04938271604938272,11.851851851851853,0)" xlink:href="#T"/><use transform="matrix(0.04938271604938272,0,0,0.04938271604938272,21.7283950617284,0)" xlink:href="#S"/><use transform="matrix(0.04938271604938272,0,0,0.04938271604938272,27.604938271604947,0)" xlink:href="#ao"/><use transform="matrix(0.04938271604938272,0,0,0.04938271604938272,36.49382716049384,0)" xlink:href="#ab"/><use transform="matrix(0.04938271604938272,0,0,0.04938271604938272,40.39506172839507,0)" xlink:href="#am"/><use transform="matrix(0.04938271604938272,0,0,0.04938271604938272,49.28395061728396,0)" xlink:href="#T"/><use transform="matrix(0.04938271604938272,0,0,0.04938271604938272,59.16049382716051,0)" xlink:href="#as"/><use transform="matrix(0.04938271604938272,0,0,0.04938271604938272,69.53086419753087,0)" xlink:href="#as"/></g><path d="M182-130c37 4 62 22 62 59C244 23 116-4 24 0v-248c84 5 203-23 205 63 0 31-19 50-47 55zM76-148c40-3 101 13 101-30 0-44-60-28-101-31v61zm0 110c48-3 116 14 116-37 0-48-69-32-116-35v72" id="at"/><path d="M25 0v-261h50V0H25" id="au"/><path d="M24 0v-248h52v208h133V0H24" id="av"/><path d="M133-34C117-15 103 5 69 4 32 3 11-16 11-54c-1-60 55-63 116-61 1-26-3-47-28-47-18 1-26 9-28 27l-52-2c7-38 36-58 82-57s74 22 75 68l1 82c-1 14 12 18 25 15v27c-30 8-71 5-69-32zm-48 3c29 0 43-24 42-57-32 0-66-3-65 30 0 17 8 27 23 27" id="aw"/><path d="M88-194c31-1 46 15 58 34l-1-101h50l1 261h-48c-2-10 0-23-3-31C134-8 116 4 84 4 32 4 16-41 15-95c0-56 19-97 73-99zm17 164c33 0 40-30 41-66 1-37-9-64-41-64s-38 30-39 65c0 43 13 65 39 65" id="ax"/><path d="M85 4C-2 5 27-109 22-190h50c7 57-23 150 33 157 60-5 35-97 40-157h50l1 190h-47c-2-12 1-28-3-38-12 25-28 42-61 42" id="ay"/><g id="u"><use transform="matrix(0.05,0,0,0.05,0,0)" xlink:href="#at"/><use transform="matrix(0.05,0,0,0.05,12.950000000000001,0)" xlink:href="#G"/><use transform="matrix(0.05,0,0,0.05,22.950000000000003,0)" xlink:href="#au"/><use transform="matrix(0.05,0,0,0.05,27.950000000000003,0)" xlink:href="#au"/><use transform="matrix(0.05,0,0,0.05,32.95,0)" xlink:href="#av"/><use transform="matrix(0.05,0,0,0.05,43.900000000000006,0)" xlink:href="#aw"/><use transform="matrix(0.05,0,0,0.05,53.900000000000006,0)" xlink:href="#O"/><use transform="matrix(0.05,0,0,0.05,65.9,0)" xlink:href="#aw"/><use transform="matrix(0.05,0,0,0.05,75.9,0)" xlink:href="#ax"/><use transform="matrix(0.05,0,0,0.05,86.85000000000001,0)" xlink:href="#ay"/><use transform="matrix(0.05,0,0,0.05,97.80000000000001,0)" xlink:href="#au"/><use transform="matrix(0.05,0,0,0.05,102.80000000000001,0)" xlink:href="#aw"/><use transform="matrix(0.05,0,0,0.05,112.80000000000001,0)" xlink:href="#N"/><use transform="matrix(0.05,0,0,0.05,123.80000000000001,0)" xlink:href="#aw"/><use transform="matrix(0.05,0,0,0.05,133.8,0)" xlink:href="#au"/><use transform="matrix(0.05,0,0,0.05,138.8,0)" xlink:href="#A"/><use transform="matrix(0.05,0,0,0.05,143.8,0)" xlink:href="#ax"/><use transform="matrix(0.05,0,0,0.05,154.75,0)" xlink:href="#aw"/><use transform="matrix(0.05,0,0,0.05,164.75,0)" xlink:href="#M"/><use transform="matrix(0.05,0,0,0.05,170.7,0)" xlink:href="#y"/><use transform="matrix(0.05,0,0,0.05,181.64999999999998,0)" xlink:href="#H"/></g><path d="M87 75C49 33 22-17 22-94c0-76 28-126 65-167h31c-38 41-64 92-64 168S80 34 118 75H87" id="az"/><path d="M68-38c1 34 0 65-14 84H32c9-13 17-26 17-46H33v-38h35" id="aA"/><g id="v"><use transform="matrix(0.05,0,0,0.05,0,0)" xlink:href="#ao"/><use transform="matrix(0.05,0,0,0.05,9,0)" xlink:href="#U"/><use transform="matrix(0.05,0,0,0.05,19,0)" xlink:href="#aj"/><use transform="matrix(0.05,0,0,0.05,22.95,0)" xlink:href="#ab"/><use transform="matrix(0.05,0,0,0.05,26.899999999999995,0)" xlink:href="#ac"/><use transform="matrix(0.05,0,0,0.05,36.9,0)" xlink:href="#U"/><use transform="matrix(0.05,0,0,0.05,46.9,0)" xlink:href="#V"/><use transform="matrix(0.05,0,0,0.05,51.900000000000006,0)" xlink:href="#T"/><use transform="matrix(0.05,0,0,0.05,61.900000000000006,0)" xlink:href="#az"/><use transform="matrix(0.05,0,0,0.05,67.85,0)" xlink:href="#am"/><use transform="matrix(0.05,0,0,0.05,76.85,0)" xlink:href="#aj"/><use transform="matrix(0.05,0,0,0.05,80.8,0)" xlink:href="#T"/><use transform="matrix(0.05,0,0,0.05,90.8,0)" xlink:href="#U"/><use transform="matrix(0.05,0,0,0.05,100.8,0)" xlink:href="#S"/><use transform="matrix(0.05,0,0,0.05,106.75,0)" xlink:href="#U"/><use transform="matrix(0.05,0,0,0.05,116.75,0)" xlink:href="#af"/><use transform="matrix(0.05,0,0,0.05,126.75,0)" xlink:href="#am"/><use transform="matrix(0.05,0,0,0.05,135.75,0)" xlink:href="#T"/><use transform="matrix(0.05,0,0,0.05,145.75,0)" xlink:href="#aA"/></g><path d="M145-31C134-9 116 4 85 4 32 4 16-35 15-94c0-59 17-99 70-100 32-1 48 14 60 33 0-11-1-24 2-32h30l-1 268h-32zM93-21c41 0 51-33 51-76s-8-73-50-73c-40 0-46 35-46 75s5 74 45 74" id="aB"/><path d="M33-261c38 41 65 92 65 168S71 34 33 75H2C39 34 66-17 66-93S39-220 2-261h31" id="aC"/><g id="w"><use transform="matrix(0.05,0,0,0.05,0,0)" xlink:href="#S"/><use transform="matrix(0.05,0,0,0.05,5.95,0)" xlink:href="#T"/><use transform="matrix(0.05,0,0,0.05,15.949999999999998,0)" xlink:href="#aB"/><use transform="matrix(0.05,0,0,0.05,25.950000000000003,0)" xlink:href="#ai"/><use transform="matrix(0.05,0,0,0.05,35.95,0)" xlink:href="#ab"/><use transform="matrix(0.05,0,0,0.05,39.900000000000006,0)" xlink:href="#S"/><use transform="matrix(0.05,0,0,0.05,45.85000000000001,0)" xlink:href="#T"/><use transform="matrix(0.05,0,0,0.05,55.85,0)" xlink:href="#ac"/><use transform="matrix(0.05,0,0,0.05,65.85000000000001,0)" xlink:href="#aC"/></g></defs></g></svg>