<svg xmlns="http://www.w3.org/2000/svg" xmlns:xlink="http://www.w3.org/1999/xlink" xmlns:lucid="lucid" width="1340" height="790"><g transform="translate(236 203)" lucid:page-tab-id="mKE79J_kdydz"><path d="M-2486-1710h7618v3580h-7618z" fill="#fff"/><path d="M-9.96 201.25V66.6a5 5 0 0 1 5-5H211.3" stroke="#000" stroke-width="2" fill="none"/><path d="M.04 192.32l-10 17.32-10-17.32m10 17.32v-8.5" stroke="#000" stroke-width="2" fill="none"/><path d="M240.65 61.6L225.8 46.77 210.95 61.6l14.85 14.86z" stroke="#000" stroke-width="2" fill="#fff"/><path d="M422.64 285.8l.28-59.44M432.68 276.9L422.6 294.2l-9.92-17.37m9.92 17.38l.04-8.5" stroke="#000" stroke-width="2" fill="none"/><path d="M423.06 197.02l-14.92 14.78 14.78 14.92 14.92-14.78z" stroke="#000" stroke-width="2" fill="#fff"/><path d="M117.86-133.63a5 5 0 0 1 5-5h600.3a5 5 0 0 1 5 5v22a5 5 0 0 1-5 5h-600.3a5 5 0 0 1-5-5z" fill="none"/><use xlink:href="#a" transform="matrix(1,0,0,1,117.86452427064887,-138.6303715008994) translate(0 21.833333333333336)"/><use xlink:href="#b" transform="matrix(1,0,0,1,117.86452427064887,-138.6303715008994) translate(113.77777777777779 21.833333333333336)"/><use xlink:href="#c" transform="matrix(1,0,0,1,117.86452427064887,-138.6303715008994) translate(149.1851851851852 21.833333333333336)"/><use xlink:href="#d" transform="matrix(1,0,0,1,117.86452427064887,-138.6303715008994) translate(255.62962962962965 21.833333333333336)"/><use xlink:href="#e" transform="matrix(1,0,0,1,117.86452427064887,-138.6303715008994) translate(294.0740740740741 21.833333333333336)"/><use xlink:href="#f" transform="matrix(1,0,0,1,117.86452427064887,-138.6303715008994) translate(419.6296296296297 21.833333333333336)"/><use xlink:href="#g" transform="matrix(1,0,0,1,117.86452427064887,-138.6303715008994) translate(441.8518518518519 21.833333333333336)"/><use xlink:href="#h" transform="matrix(1,0,0,1,117.86452427064887,-138.6303715008994) translate(543.925925925926 21.833333333333336)"/><path d="M614.45 61.6h3.6m7.23 0h7.2m7.23 0h3.62a5 5 0 0 1 5 5v4.9m0 9.73v9.75m0 9.75v4.88a5 5 0 0 0 5 5h4.78m9.56 0h9.57m9.56 0h4.77M623.38 71.6l-17.32-10 17.32-10m-17.32 10h8.5" stroke="#000" stroke-width="2" fill="none"/><path d="M692.57 111.58h-1.02v-1.94h1.02z" stroke="#000" stroke-width=".05"/><path d="M243.06-66.4a5 5 0 0 1 5-5h350a5 5 0 0 1 5 5v256a5 5 0 0 1-5 5h-350a5 5 0 0 1-5-5z" stroke="#000" stroke-width="2" fill="#fff"/><path d="M243.06-9.93h360m-360 145.5h360" stroke="#000" stroke-width="2" fill="none"/><use xlink:href="#i" transform="matrix(1,0,0,1,251.06380374968467,-63.39011109322226) translate(89.08641975308642 14.492063492063489)"/><use xlink:href="#j" transform="matrix(1,0,0,1,251.06380374968467,-63.39011109322226) translate(196.69135802469134 14.492063492063489)"/><use xlink:href="#k" transform="matrix(1,0,0,1,251.06380374968467,-63.39011109322226) translate(138.98765432098764 38.61904761904762)"/><use xlink:href="#l" transform="matrix(1,0,0,1,255.06380374968467,-1.92979363290479) translate(0 25.39999999999999)"/><use xlink:href="#m" transform="matrix(1,0,0,1,255.06380374968467,-1.92979363290479) translate(15.5 25.39999999999999)"/><use xlink:href="#n" transform="matrix(1,0,0,1,255.06380374968467,-1.92979363290479) translate(83.35000000000001 25.39999999999999)"/><use xlink:href="#o" transform="matrix(1,0,0,1,255.06380374968467,-1.92979363290479) translate(98.85000000000001 25.39999999999999)"/><use xlink:href="#l" transform="matrix(1,0,0,1,255.06380374968467,-1.92979363290479) translate(0 46.99999999999999)"/><use xlink:href="#p" transform="matrix(1,0,0,1,255.06380374968467,-1.92979363290479) translate(15.5 46.99999999999999)"/><use xlink:href="#q" transform="matrix(1,0,0,1,255.06380374968467,-1.92979363290479) translate(105.4 46.99999999999999)"/><use xlink:href="#l" transform="matrix(1,0,0,1,255.06380374968467,-1.92979363290479) translate(0 68.6)"/><use xlink:href="#r" transform="matrix(1,0,0,1,255.06380374968467,-1.92979363290479) translate(15.5 68.6)"/><use xlink:href="#s" transform="matrix(1,0,0,1,255.06380374968467,-1.92979363290479) translate(107.4 68.6)"/><use xlink:href="#q" transform="matrix(1,0,0,1,255.06380374968467,-1.92979363290479) translate(156.4 68.6)"/><use xlink:href="#l" transform="matrix(1,0,0,1,255.06380374968467,-1.92979363290479) translate(0 90.20000000000002)"/><use xlink:href="#t" transform="matrix(1,0,0,1,255.06380374968467,-1.92979363290479) translate(15.5 90.20000000000002)"/><use xlink:href="#u" transform="matrix(1,0,0,1,255.06380374968467,-1.92979363290479) translate(150.3 90.20000000000002)"/><use xlink:href="#l" transform="matrix(1,0,0,1,255.06380374968467,-1.92979363290479) translate(0 111.80000000000001)"/><use xlink:href="#v" transform="matrix(1,0,0,1,255.06380374968467,-1.92979363290479) translate(15.5 111.80000000000001)"/><use xlink:href="#w" transform="matrix(1,0,0,1,255.06380374968467,-1.92979363290479) translate(130.25 111.80000000000001)"/><use xlink:href="#x" transform="matrix(1,0,0,1,255.06380374968467,-1.92979363290479) translate(140.25 111.80000000000001)"/><path d="M693.57 25.6a5 5 0 0 1 5-5h350a5 5 0 0 1 5 5v170a5 5 0 0 1-5 5h-350a5 5 0 0 1-5-5z" stroke="#000" stroke-width="2" fill="#fff"/><path d="M693.57 82.34h360m-360 59.1h360" stroke="#000" stroke-width="2" fill="none"/><g><use xlink:href="#y" transform="matrix(1,0,0,1,701.5721178597364,28.61004028488105) translate(88.66666666666666 14.358730158730156)"/><use xlink:href="#z" transform="matrix(1,0,0,1,701.5721178597364,28.61004028488105) translate(175.4320987654321 14.358730158730156)"/><use xlink:href="#A" transform="matrix(1,0,0,1,701.5721178597364,28.61004028488105) translate(114.25 38.663492063492065)"/></g><g><use xlink:href="#l" transform="matrix(1,0,0,1,705.5721178597364,149.4370244118652) translate(0 25.6)"/><use xlink:href="#B" transform="matrix(1,0,0,1,705.5721178597364,149.4370244118652) translate(15.5 25.6)"/><use xlink:href="#C" transform="matrix(1,0,0,1,705.5721178597364,149.4370244118652) translate(137.3 25.6)"/></g><path d="M242.6 302.18a5 5 0 0 1 5-5h350a5 5 0 0 1 5 5v234a5 5 0 0 1-5 5h-350a5 5 0 0 1-5-5z" stroke="#000" stroke-width="2" fill="#fff"/><path d="M242.6 358.64h360m-360 80.7h360" stroke="#000" stroke-width="2" fill="none"/><g><use xlink:href="#D" transform="matrix(1,0,0,1,250.59317907048944,305.1804642362847) translate(101.11111111111111 14.492063492063489)"/><use xlink:href="#E" transform="matrix(1,0,0,1,250.59317907048944,305.1804642362847) translate(170.83950617283952 14.492063492063489)"/><use xlink:href="#F" transform="matrix(1,0,0,1,250.59317907048944,305.1804642362847) translate(92.14814814814814 38.61904761904762)"/><use xlink:href="#G" transform="matrix(1,0,0,1,250.59317907048944,305.1804642362847) translate(139.50617283950618 38.61904761904762)"/><use xlink:href="#H" transform="matrix(1,0,0,1,250.59317907048944,305.1804642362847) translate(165.1358024691358 38.61904761904762)"/></g><g><use xlink:href="#l" transform="matrix(1,0,0,1,254.59317907048944,366.6407816966022) translate(0 25.299999999999997)"/><use xlink:href="#t" transform="matrix(1,0,0,1,254.59317907048944,366.6407816966022) translate(15.5 25.299999999999997)"/><use xlink:href="#u" transform="matrix(1,0,0,1,254.59317907048944,366.6407816966022) translate(150.3 25.299999999999997)"/><use xlink:href="#l" transform="matrix(1,0,0,1,254.59317907048944,366.6407816966022) translate(0 46.9)"/><use xlink:href="#v" transform="matrix(1,0,0,1,254.59317907048944,366.6407816966022) translate(15.5 46.9)"/><use xlink:href="#w" transform="matrix(1,0,0,1,254.59317907048944,366.6407816966022) translate(130.25 46.9)"/><use xlink:href="#x" transform="matrix(1,0,0,1,254.59317907048944,366.6407816966022) translate(140.25 46.9)"/></g><g><use xlink:href="#I" transform="matrix(1,0,0,1,254.59317907048944,447.34078169660216) translate(0 25.5)"/><use xlink:href="#l" transform="matrix(1,0,0,1,254.59317907048944,447.34078169660216) translate(0 47.1)"/><use xlink:href="#J" transform="matrix(1,0,0,1,254.59317907048944,447.34078169660216) translate(15.5 47.1)"/><use xlink:href="#K" transform="matrix(1,0,0,1,254.59317907048944,447.34078169660216) translate(127.30000000000001 47.1)"/><use xlink:href="#l" transform="matrix(1,0,0,1,254.59317907048944,447.34078169660216) translate(0 68.7)"/><use xlink:href="#L" transform="matrix(1,0,0,1,254.59317907048944,447.34078169660216) translate(15.5 68.7)"/><use xlink:href="#M" transform="matrix(1,0,0,1,254.59317907048944,447.34078169660216) translate(155.20000000000002 68.7)"/></g><path d="M-189.96 217.64a5 5 0 0 1 5-5h350a5 5 0 0 1 5 5v191a5 5 0 0 1-5 5h-350a5 5 0 0 1-5-5z" stroke="#000" stroke-width="2" fill="#fff"/><path d="M-189.96 274.1h360m-360 80.7h360" stroke="#000" stroke-width="2" fill="none"/><g><use xlink:href="#D" transform="matrix(1,0,0,1,-181.96245984079906,220.6389806557047) translate(101.11111111111111 14.492063492063489)"/><use xlink:href="#E" transform="matrix(1,0,0,1,-181.96245984079906,220.6389806557047) translate(170.83950617283952 14.492063492063489)"/><use xlink:href="#N" transform="matrix(1,0,0,1,-181.96245984079906,220.6389806557047) translate(116.76543209876543 38.61904761904762)"/></g><g><use xlink:href="#l" transform="matrix(1,0,0,1,-177.96245984079906,282.09929811602217) translate(0 25.299999999999997)"/><use xlink:href="#p" transform="matrix(1,0,0,1,-177.96245984079906,282.09929811602217) translate(15.5 25.299999999999997)"/><use xlink:href="#q" transform="matrix(1,0,0,1,-177.96245984079906,282.09929811602217) translate(105.4 25.299999999999997)"/><use xlink:href="#l" transform="matrix(1,0,0,1,-177.96245984079906,282.09929811602217) translate(0 46.9)"/><use xlink:href="#r" transform="matrix(1,0,0,1,-177.96245984079906,282.09929811602217) translate(15.5 46.9)"/><use xlink:href="#s" transform="matrix(1,0,0,1,-177.96245984079906,282.09929811602217) translate(107.4 46.9)"/><use xlink:href="#O" transform="matrix(1,0,0,1,-177.96245984079906,282.09929811602217) translate(156.4 46.9)"/></g><defs><path d="M24-248c120-7 223 5 221 122C244-46 201 0 124 0H24v-248zM76-40c74 7 117-18 117-86 0-67-45-88-117-82v168" id="P"/><path d="M110-194c64 0 96 36 96 99 0 64-35 99-97 99-61 0-95-36-95-99 0-62 34-99 96-99zm-1 164c35 0 45-28 45-65 0-40-10-65-43-65-34 0-45 26-45 65 0 36 10 65 43 65" id="Q"/><path d="M220-157c-53 9-28 100-34 157h-49v-107c1-27-5-49-29-50C55-147 81-57 75 0H25l-1-190h47c2 12-1 28 3 38 10-53 101-56 108 0 13-22 24-43 59-42 82 1 51 116 57 194h-49v-107c-1-25-5-48-29-50" id="R"/><path d="M25-224v-37h50v37H25zM25 0v-190h50V0H25" id="S"/><path d="M135-194c87-1 58 113 63 194h-50c-7-57 23-157-34-157-59 0-34 97-39 157H25l-1-190h47c2 12-1 28 3 38 12-26 28-41 61-42" id="T"/><g id="a"><use transform="matrix(0.07407407407407408,0,0,0.07407407407407408,0,0)" xlink:href="#P"/><use transform="matrix(0.07407407407407408,0,0,0.07407407407407408,19.185185185185187,0)" xlink:href="#Q"/><use transform="matrix(0.07407407407407408,0,0,0.07407407407407408,35.40740740740741,0)" xlink:href="#R"/><use transform="matrix(0.07407407407407408,0,0,0.07407407407407408,59.11111111111111,0)" xlink:href="#S"/><use transform="matrix(0.07407407407407408,0,0,0.07407407407407408,66.51851851851852,0)" xlink:href="#T"/><use transform="matrix(0.07407407407407408,0,0,0.07407407407407408,82.74074074074075,0)" xlink:href="#S"/><use transform="matrix(0.07407407407407408,0,0,0.07407407407407408,90.14814814814817,0)" xlink:href="#Q"/></g><path d="M199 0l-22-63H83L61 0H9l90-248h61L250 0h-51zm-33-102l-36-108c-10 38-24 72-36 108h72" id="U"/><path d="M35-132v-50h50v50H35zM35 0v-49h50V0H35" id="V"/><g id="b"><use transform="matrix(0.07407407407407408,0,0,0.07407407407407408,0,0)" xlink:href="#U"/><use transform="matrix(0.07407407407407408,0,0,0.07407407407407408,19.185185185185187,0)" xlink:href="#V"/></g><path d="M67-125c0 54 23 88 75 88 28 0 53-7 68-21v-34h-60v-39h108v91C232-14 192 4 140 4 58 4 20-42 15-125 8-236 126-280 215-234c19 10 29 26 37 47l-47 15c-11-23-29-39-63-39-53 1-75 33-75 86" id="W"/><path d="M185-48c-13 30-37 53-82 52C43 2 14-33 14-96s30-98 90-98c62 0 83 45 84 108H66c0 31 8 55 39 56 18 0 30-7 34-22zm-45-69c5-46-57-63-70-21-2 6-4 13-4 21h74" id="X"/><path d="M137-138c1-29-70-34-71-4 15 46 118 7 119 86 1 83-164 76-172 9l43-7c4 19 20 25 44 25 33 8 57-30 24-41C81-84 22-81 20-136c-2-80 154-74 161-7" id="Y"/><path d="M115-3C79 11 28 4 28-45v-112H4v-33h27l15-45h31v45h36v33H77v99c-1 23 16 31 38 25v30" id="Z"/><path d="M110-194c64 0 96 36 96 99 0 64-35 99-97 99-61 0-95-36-95-99 0-62 34-99 96-99zm-1 164c35 0 45-28 45-65 0-40-10-65-43-65-34 0-45 26-45 65 0 36 10 65 43 65zM81-208v-5l45-51h45v8l-60 48H81" id="aa"/><g id="c"><use transform="matrix(0.07407407407407408,0,0,0.07407407407407408,0,0)" xlink:href="#W"/><use transform="matrix(0.07407407407407408,0,0,0.07407407407407408,20.740740740740744,0)" xlink:href="#X"/><use transform="matrix(0.07407407407407408,0,0,0.07407407407407408,35.55555555555556,0)" xlink:href="#Y"/><use transform="matrix(0.07407407407407408,0,0,0.07407407407407408,50.370370370370374,0)" xlink:href="#Z"/><use transform="matrix(0.07407407407407408,0,0,0.07407407407407408,59.18518518518519,0)" xlink:href="#S"/><use transform="matrix(0.07407407407407408,0,0,0.07407407407407408,66.5925925925926,0)" xlink:href="#aa"/><use transform="matrix(0.07407407407407408,0,0,0.07407407407407408,82.81481481481482,0)" xlink:href="#T"/></g><path d="M88-194c31-1 46 15 58 34l-1-101h50l1 261h-48c-2-10 0-23-3-31C134-8 116 4 84 4 32 4 16-41 15-95c0-56 19-97 73-99zm17 164c33 0 40-30 41-66 1-37-9-64-41-64s-38 30-39 65c0 43 13 65 39 65" id="ab"/><g id="d"><use transform="matrix(0.07407407407407408,0,0,0.07407407407407408,0,0)" xlink:href="#ab"/><use transform="matrix(0.07407407407407408,0,0,0.07407407407407408,16.222222222222225,0)" xlink:href="#X"/></g><path d="M24 0v-248h52V0H24" id="ac"/><path d="M133-34C117-15 103 5 69 4 32 3 11-16 11-54c-1-60 55-63 116-61 1-26-3-47-28-47-18 1-26 9-28 27l-52-2c7-38 36-58 82-57s74 22 75 68l1 82c-1 14 12 18 25 15v27c-30 8-71 5-69-32zm-48 3c29 0 43-24 42-57-32 0-66-3-65 30 0 17 8 27 23 27" id="ad"/><g id="e"><use transform="matrix(0.07407407407407408,0,0,0.07407407407407408,0,0)" xlink:href="#ac"/><use transform="matrix(0.07407407407407408,0,0,0.07407407407407408,7.407407407407408,0)" xlink:href="#ab"/><use transform="matrix(0.07407407407407408,0,0,0.07407407407407408,23.629629629629633,0)" xlink:href="#X"/><use transform="matrix(0.07407407407407408,0,0,0.07407407407407408,38.44444444444445,0)" xlink:href="#T"/><use transform="matrix(0.07407407407407408,0,0,0.07407407407407408,54.66666666666667,0)" xlink:href="#Z"/><use transform="matrix(0.07407407407407408,0,0,0.07407407407407408,63.48148148148149,0)" xlink:href="#S"/><use transform="matrix(0.07407407407407408,0,0,0.07407407407407408,70.8888888888889,0)" xlink:href="#ab"/><use transform="matrix(0.07407407407407408,0,0,0.07407407407407408,87.11111111111113,0)" xlink:href="#ad"/><use transform="matrix(0.07407407407407408,0,0,0.07407407407407408,101.92592592592595,0)" xlink:href="#ab"/></g><path d="M123 10C108 53 80 86 19 72V37c35 8 53-11 59-39L3-190h52l48 148c12-52 28-100 44-148h51" id="ae"/><use transform="matrix(0.07407407407407408,0,0,0.07407407407407408,0,0)" xlink:href="#ae" id="f"/><path d="M190-63c-7 42-38 67-86 67-59 0-84-38-90-98-12-110 154-137 174-36l-49 2c-2-19-15-32-35-32-30 0-35 28-38 64-6 74 65 87 74 30" id="af"/><g id="g"><use transform="matrix(0.07407407407407408,0,0,0.07407407407407408,0,0)" xlink:href="#U"/><use transform="matrix(0.07407407407407408,0,0,0.07407407407407408,19.185185185185187,0)" xlink:href="#af"/><use transform="matrix(0.07407407407407408,0,0,0.07407407407407408,34,0)" xlink:href="#af"/><use transform="matrix(0.07407407407407408,0,0,0.07407407407407408,48.81481481481481,0)" xlink:href="#X"/><use transform="matrix(0.07407407407407408,0,0,0.07407407407407408,63.629629629629626,0)" xlink:href="#Y"/><use transform="matrix(0.07407407407407408,0,0,0.07407407407407408,78.44444444444446,0)" xlink:href="#Q"/></g><path d="M67-93c0 74 22 123 53 168H70C40 30 18-18 18-93s22-123 52-168h50c-32 44-53 94-53 168" id="ag"/><path d="M230 0l2-204L168 0h-37L68-204 70 0H24v-248h70l56 185 57-185h69V0h-46" id="ah"/><path d="M102-93c0 74-22 123-52 168H0C30 29 54-18 53-93c0-74-22-123-53-168h50c30 45 52 94 52 168" id="ai"/><g id="h"><use transform="matrix(0.07407407407407408,0,0,0.07407407407407408,0,0)" xlink:href="#ag"/><use transform="matrix(0.07407407407407408,0,0,0.07407407407407408,8.814814814814817,0)" xlink:href="#ac"/><use transform="matrix(0.07407407407407408,0,0,0.07407407407407408,16.222222222222225,0)" xlink:href="#U"/><use transform="matrix(0.07407407407407408,0,0,0.07407407407407408,35.40740740740741,0)" xlink:href="#ah"/><use transform="matrix(0.07407407407407408,0,0,0.07407407407407408,57.555555555555564,0)" xlink:href="#ai"/></g><path d="M15-91v-56l181-69v40L49-119l147 57v40" id="aj"/><path d="M205 0l-28-72H64L36 0H1l101-248h38L239 0h-34zm-38-99l-47-123c-12 45-31 82-46 123h93" id="ak"/><path d="M177-190C167-65 218 103 67 71c-23-6-38-20-44-43l32-5c15 47 100 32 89-28v-30C133-14 115 1 83 1 29 1 15-40 15-95c0-56 16-97 71-98 29-1 48 16 59 35 1-10 0-23 2-32h30zM94-22c36 0 50-32 50-73 0-42-14-75-50-75-39 0-46 34-46 75s6 73 46 73" id="al"/><path d="M114-163C36-179 61-72 57 0H25l-1-190h30c1 12-1 29 2 39 6-27 23-49 58-41v29" id="am"/><path d="M100-194c63 0 86 42 84 106H49c0 40 14 67 53 68 26 1 43-12 49-29l28 8c-11 28-37 45-77 45C44 4 14-33 15-96c1-61 26-98 85-98zm52 81c6-60-76-77-97-28-3 7-6 17-6 28h103" id="an"/><path d="M141-36C126-15 110 5 73 4 37 3 15-17 15-53c-1-64 63-63 125-63 3-35-9-54-41-54-24 1-41 7-42 31l-33-3c5-37 33-52 76-52 45 0 72 20 72 64v82c-1 20 7 32 28 27v20c-31 9-61-2-59-35zM48-53c0 20 12 33 32 33 41-3 63-29 60-74-43 2-92-5-92 41" id="ao"/><path d="M59-47c-2 24 18 29 38 22v24C64 9 27 4 27-40v-127H5v-23h24l9-43h21v43h35v23H59v120" id="ap"/><g id="i"><use transform="matrix(0.04938271604938272,0,0,0.04938271604938272,0,0)" xlink:href="#aj"/><use transform="matrix(0.04938271604938272,0,0,0.04938271604938272,10.370370370370372,0)" xlink:href="#aj"/><use transform="matrix(0.04938271604938272,0,0,0.04938271604938272,20.740740740740744,0)" xlink:href="#ak"/><use transform="matrix(0.04938271604938272,0,0,0.04938271604938272,32.592592592592595,0)" xlink:href="#al"/><use transform="matrix(0.04938271604938272,0,0,0.04938271604938272,42.46913580246914,0)" xlink:href="#al"/><use transform="matrix(0.04938271604938272,0,0,0.04938271604938272,52.345679012345684,0)" xlink:href="#am"/><use transform="matrix(0.04938271604938272,0,0,0.04938271604938272,58.22222222222223,0)" xlink:href="#an"/><use transform="matrix(0.04938271604938272,0,0,0.04938271604938272,68.09876543209877,0)" xlink:href="#al"/><use transform="matrix(0.04938271604938272,0,0,0.04938271604938272,77.97530864197532,0)" xlink:href="#ao"/><use transform="matrix(0.04938271604938272,0,0,0.04938271604938272,87.85185185185186,0)" xlink:href="#ap"/><use transform="matrix(0.04938271604938272,0,0,0.04938271604938272,92.79012345679013,0)" xlink:href="#an"/></g><path d="M233-177c-1 41-23 64-60 70L243 0h-38l-65-103H63V0H30v-248c88 3 205-21 203 71zM63-129c60-2 137 13 137-47 0-61-80-42-137-45v92" id="aq"/><path d="M100-194c62-1 85 37 85 99 1 63-27 99-86 99S16-35 15-95c0-66 28-99 85-99zM99-20c44 1 53-31 53-75 0-43-8-75-51-75s-53 32-53 75 10 74 51 75" id="ar"/><path d="M15-22v-40l146-57-146-57v-40l181 69v56" id="as"/><g id="j"><use transform="matrix(0.04938271604938272,0,0,0.04938271604938272,0,0)" xlink:href="#aq"/><use transform="matrix(0.04938271604938272,0,0,0.04938271604938272,12.790123456790125,0)" xlink:href="#ar"/><use transform="matrix(0.04938271604938272,0,0,0.04938271604938272,22.66666666666667,0)" xlink:href="#ar"/><use transform="matrix(0.04938271604938272,0,0,0.04938271604938272,32.543209876543216,0)" xlink:href="#ap"/><use transform="matrix(0.04938271604938272,0,0,0.04938271604938272,37.48148148148149,0)" xlink:href="#as"/><use transform="matrix(0.04938271604938272,0,0,0.04938271604938272,47.85185185185186,0)" xlink:href="#as"/></g><path d="M238-95c0 69-44 99-111 99C63 4 22-25 22-93v-155h51v151c-1 38 19 59 55 60 90 1 49-130 58-211h52v153" id="at"/><path d="M85 4C-2 5 27-109 22-190h50c7 57-23 150 33 157 60-5 35-97 40-157h50l1 190h-47c-2-12 1-28-3-38-12 25-28 42-61 42" id="au"/><path d="M135-150c-39-12-60 13-60 57V0H25l-1-190h47c2 13-1 29 3 40 6-28 27-53 61-41v41" id="av"/><g id="k"><use transform="matrix(0.04938271604938272,0,0,0.04938271604938272,0,0)" xlink:href="#at"/><use transform="matrix(0.04938271604938272,0,0,0.04938271604938272,12.790123456790125,0)" xlink:href="#Y"/><use transform="matrix(0.04938271604938272,0,0,0.04938271604938272,22.66666666666667,0)" xlink:href="#au"/><use transform="matrix(0.04938271604938272,0,0,0.04938271604938272,33.48148148148149,0)" xlink:href="#ad"/><use transform="matrix(0.04938271604938272,0,0,0.04938271604938272,43.35802469135803,0)" xlink:href="#av"/><use transform="matrix(0.04938271604938272,0,0,0.04938271604938272,50.271604938271615,0)" xlink:href="#S"/><use transform="matrix(0.04938271604938272,0,0,0.04938271604938272,55.209876543209894,0)" xlink:href="#Q"/></g><path d="M118-107v75H92v-75H18v-26h74v-75h26v75h74v26h-74" id="aw"/><use transform="matrix(0.05,0,0,0.05,0,0)" xlink:href="#aw" id="l"/><path d="M24-231v-30h32v30H24zM24 0v-190h32V0H24" id="ax"/><path d="M85-194c31 0 48 13 60 33l-1-100h32l1 261h-30c-2-10 0-23-3-31C134-8 116 4 85 4 32 4 16-35 15-94c0-66 23-100 70-100zm9 24c-40 0-46 34-46 75 0 40 6 74 45 74 42 0 51-32 51-76 0-42-9-74-50-73" id="ay"/><path d="M33-154v-36h34v36H33zM33 0v-36h34V0H33" id="az"/><path d="M135-143c-3-34-86-38-87 0 15 53 115 12 119 90S17 21 10-45l28-5c4 36 97 45 98 0-10-56-113-15-118-90-4-57 82-63 122-42 12 7 21 19 24 35" id="aA"/><path d="M117-194c89-4 53 116 60 194h-32v-121c0-31-8-49-39-48C34-167 62-67 57 0H25l-1-190h30c1 10-1 24 2 32 11-22 29-35 61-36" id="aB"/><g id="m"><use transform="matrix(0.05,0,0,0.05,0,0)" xlink:href="#ax"/><use transform="matrix(0.05,0,0,0.05,3.95,0)" xlink:href="#ay"/><use transform="matrix(0.05,0,0,0.05,13.949999999999998,0)" xlink:href="#az"/><use transform="matrix(0.05,0,0,0.05,18.95,0)" xlink:href="#aA"/><use transform="matrix(0.05,0,0,0.05,27.950000000000003,0)" xlink:href="#ap"/><use transform="matrix(0.05,0,0,0.05,32.95,0)" xlink:href="#am"/><use transform="matrix(0.05,0,0,0.05,38.900000000000006,0)" xlink:href="#ax"/><use transform="matrix(0.05,0,0,0.05,42.85000000000001,0)" xlink:href="#aB"/><use transform="matrix(0.05,0,0,0.05,52.85,0)" xlink:href="#al"/></g><path d="M18-150v-26h174v26H18zm0 90v-26h174v26H18" id="aC"/><use transform="matrix(0.05,0,0,0.05,0,0)" xlink:href="#aC" id="n"/><path d="M101-234c-31-9-42 10-38 44h38v23H63V0H32v-167H5v-23h27c-7-52 17-82 69-68v24" id="aD"/><path d="M84 4C-5 8 30-112 23-190h32v120c0 31 7 50 39 49 72-2 45-101 50-169h31l1 190h-30c-1-10 1-25-2-33-11 22-28 36-60 37" id="aE"/><path d="M24 0v-261h32V0H24" id="aF"/><path d="M137 0h-34L2-248h35l83 218 83-218h36" id="aG"/><g id="o"><use transform="matrix(0.05,0,0,0.05,0,0)" xlink:href="#ay"/><use transform="matrix(0.05,0,0,0.05,10,0)" xlink:href="#an"/><use transform="matrix(0.05,0,0,0.05,20,0)" xlink:href="#aD"/><use transform="matrix(0.05,0,0,0.05,25,0)" xlink:href="#ao"/><use transform="matrix(0.05,0,0,0.05,35,0)" xlink:href="#aE"/><use transform="matrix(0.05,0,0,0.05,45,0)" xlink:href="#aF"/><use transform="matrix(0.05,0,0,0.05,48.95,0)" xlink:href="#ap"/><use transform="matrix(0.05,0,0,0.05,53.95,0)" xlink:href="#aG"/><use transform="matrix(0.05,0,0,0.05,64.6,0)" xlink:href="#ao"/><use transform="matrix(0.05,0,0,0.05,74.6,0)" xlink:href="#aF"/><use transform="matrix(0.05,0,0,0.05,78.55,0)" xlink:href="#aE"/><use transform="matrix(0.05,0,0,0.05,88.55,0)" xlink:href="#an"/></g><path d="M210-169c-67 3-38 105-44 169h-31v-121c0-29-5-50-35-48C34-165 62-65 56 0H25l-1-190h30c1 10-1 24 2 32 10-44 99-50 107 0 11-21 27-35 58-36 85-2 47 119 55 194h-31v-121c0-29-5-49-35-48" id="aH"/><g id="p"><use transform="matrix(0.05,0,0,0.05,0,0)" xlink:href="#aE"/><use transform="matrix(0.05,0,0,0.05,10,0)" xlink:href="#aA"/><use transform="matrix(0.05,0,0,0.05,19,0)" xlink:href="#an"/><use transform="matrix(0.05,0,0,0.05,29,0)" xlink:href="#am"/><use transform="matrix(0.05,0,0,0.05,34.95,0)" xlink:href="#aB"/><use transform="matrix(0.05,0,0,0.05,44.95,0)" xlink:href="#ao"/><use transform="matrix(0.05,0,0,0.05,54.95,0)" xlink:href="#aH"/><use transform="matrix(0.05,0,0,0.05,69.9,0)" xlink:href="#an"/><use transform="matrix(0.05,0,0,0.05,79.9,0)" xlink:href="#az"/></g><g id="q"><use transform="matrix(0.05,0,0,0.05,0,0)" xlink:href="#aA"/><use transform="matrix(0.05,0,0,0.05,9,0)" xlink:href="#ap"/><use transform="matrix(0.05,0,0,0.05,14,0)" xlink:href="#am"/><use transform="matrix(0.05,0,0,0.05,19.95,0)" xlink:href="#ax"/><use transform="matrix(0.05,0,0,0.05,23.9,0)" xlink:href="#aB"/><use transform="matrix(0.05,0,0,0.05,33.9,0)" xlink:href="#al"/></g><path d="M115-194c55 1 70 41 70 98S169 2 115 4C84 4 66-9 55-30l1 105H24l-1-265h31l2 30c10-21 28-34 59-34zm-8 174c40 0 45-34 45-75s-6-73-45-74c-42 0-51 32-51 76 0 43 10 73 51 73" id="aI"/><path d="M206 0h-36l-40-164L89 0H53L-1-190h32L70-26l43-164h34l41 164 42-164h31" id="aJ"/><path d="M-5 72V49h209v23H-5" id="aK"/><g id="r"><use transform="matrix(0.05,0,0,0.05,0,0)" xlink:href="#aI"/><use transform="matrix(0.05,0,0,0.05,10,0)" xlink:href="#ao"/><use transform="matrix(0.05,0,0,0.05,20,0)" xlink:href="#aA"/><use transform="matrix(0.05,0,0,0.05,29,0)" xlink:href="#aA"/><use transform="matrix(0.05,0,0,0.05,38,0)" xlink:href="#aJ"/><use transform="matrix(0.05,0,0,0.05,50.95,0)" xlink:href="#ar"/><use transform="matrix(0.05,0,0,0.05,60.95,0)" xlink:href="#am"/><use transform="matrix(0.05,0,0,0.05,66.9,0)" xlink:href="#ay"/><use transform="matrix(0.05,0,0,0.05,76.9,0)" xlink:href="#aK"/></g><path d="M106-169C34-169 62-67 57 0H25v-261h32l-1 103c12-21 28-36 61-36 89 0 53 116 60 194h-32v-121c2-32-8-49-39-48" id="aL"/><g id="s"><use transform="matrix(0.05,0,0,0.05,0,0)" xlink:href="#aL"/><use transform="matrix(0.05,0,0,0.05,10,0)" xlink:href="#ao"/><use transform="matrix(0.05,0,0,0.05,20,0)" xlink:href="#aA"/><use transform="matrix(0.05,0,0,0.05,29,0)" xlink:href="#aL"/><use transform="matrix(0.05,0,0,0.05,39,0)" xlink:href="#az"/></g><path d="M96-169c-40 0-48 33-48 73s9 75 48 75c24 0 41-14 43-38l32 2c-6 37-31 61-74 61-59 0-76-41-82-99-10-93 101-131 147-64 4 7 5 14 7 22l-32 3c-4-21-16-35-41-35" id="aM"/><path d="M108 0H70L1-190h34L89-25l56-165h34" id="aN"/><g id="t"><use transform="matrix(0.05,0,0,0.05,0,0)" xlink:href="#aM"/><use transform="matrix(0.05,0,0,0.05,9,0)" xlink:href="#aF"/><use transform="matrix(0.05,0,0,0.05,12.949999999999998,0)" xlink:href="#an"/><use transform="matrix(0.05,0,0,0.05,22.95,0)" xlink:href="#ao"/><use transform="matrix(0.05,0,0,0.05,32.95,0)" xlink:href="#am"/><use transform="matrix(0.05,0,0,0.05,38.900000000000006,0)" xlink:href="#ao"/><use transform="matrix(0.05,0,0,0.05,48.900000000000006,0)" xlink:href="#aB"/><use transform="matrix(0.05,0,0,0.05,58.900000000000006,0)" xlink:href="#aM"/><use transform="matrix(0.05,0,0,0.05,67.9,0)" xlink:href="#an"/><use transform="matrix(0.05,0,0,0.05,77.9,0)" xlink:href="#aK"/><use transform="matrix(0.05,0,0,0.05,87.9,0)" xlink:href="#aF"/><use transform="matrix(0.05,0,0,0.05,91.85000000000001,0)" xlink:href="#an"/><use transform="matrix(0.05,0,0,0.05,101.85000000000001,0)" xlink:href="#aN"/><use transform="matrix(0.05,0,0,0.05,110.85000000000001,0)" xlink:href="#an"/><use transform="matrix(0.05,0,0,0.05,120.85000000000001,0)" xlink:href="#aF"/><use transform="matrix(0.05,0,0,0.05,124.80000000000001,0)" xlink:href="#az"/></g><g id="u"><use transform="matrix(0.05,0,0,0.05,0,0)" xlink:href="#ax"/><use transform="matrix(0.05,0,0,0.05,3.95,0)" xlink:href="#aB"/><use transform="matrix(0.05,0,0,0.05,13.949999999999998,0)" xlink:href="#ap"/></g><path d="M179-190L93 31C79 59 56 82 12 73V49c39 6 53-20 64-50L1-190h34L92-34l54-156h33" id="aO"/><g id="v"><use transform="matrix(0.05,0,0,0.05,0,0)" xlink:href="#ax"/><use transform="matrix(0.05,0,0,0.05,3.95,0)" xlink:href="#aB"/><use transform="matrix(0.05,0,0,0.05,13.949999999999998,0)" xlink:href="#ap"/><use transform="matrix(0.05,0,0,0.05,18.95,0)" xlink:href="#an"/><use transform="matrix(0.05,0,0,0.05,28.950000000000003,0)" xlink:href="#al"/><use transform="matrix(0.05,0,0,0.05,38.95,0)" xlink:href="#am"/><use transform="matrix(0.05,0,0,0.05,44.900000000000006,0)" xlink:href="#ax"/><use transform="matrix(0.05,0,0,0.05,48.85000000000001,0)" xlink:href="#ap"/><use transform="matrix(0.05,0,0,0.05,53.85,0)" xlink:href="#aO"/><use transform="matrix(0.05,0,0,0.05,62.85,0)" xlink:href="#aK"/><use transform="matrix(0.05,0,0,0.05,72.85000000000001,0)" xlink:href="#aF"/><use transform="matrix(0.05,0,0,0.05,76.80000000000001,0)" xlink:href="#an"/><use transform="matrix(0.05,0,0,0.05,86.80000000000001,0)" xlink:href="#aN"/><use transform="matrix(0.05,0,0,0.05,95.80000000000001,0)" xlink:href="#an"/><use transform="matrix(0.05,0,0,0.05,105.80000000000001,0)" xlink:href="#aF"/></g><use transform="matrix(0.05,0,0,0.05,0,0)" xlink:href="#az" id="w"/><g id="x"><use transform="matrix(0.05,0,0,0.05,0,0)" xlink:href="#ax"/><use transform="matrix(0.05,0,0,0.05,3.95,0)" xlink:href="#aB"/><use transform="matrix(0.05,0,0,0.05,13.949999999999998,0)" xlink:href="#ap"/></g><path d="M18-100v-36l175-74v27L42-118l151 64v27" id="aP"/><path d="M30-248c118-7 216 8 213 122C240-48 200 0 122 0H30v-248zM63-27c89 8 146-16 146-99s-60-101-146-95v194" id="aQ"/><g id="y"><use transform="matrix(0.04938271604938272,0,0,0.04938271604938272,0,0)" xlink:href="#aP"/><use transform="matrix(0.04938271604938272,0,0,0.04938271604938272,10.370370370370372,0)" xlink:href="#aP"/><use transform="matrix(0.04938271604938272,0,0,0.04938271604938272,20.740740740740744,0)" xlink:href="#aQ"/><use transform="matrix(0.04938271604938272,0,0,0.04938271604938272,33.53086419753087,0)" xlink:href="#ar"/><use transform="matrix(0.04938271604938272,0,0,0.04938271604938272,43.40740740740741,0)" xlink:href="#aH"/><use transform="matrix(0.04938271604938272,0,0,0.04938271604938272,58.17283950617284,0)" xlink:href="#ao"/><use transform="matrix(0.04938271604938272,0,0,0.04938271604938272,68.0493827160494,0)" xlink:href="#ax"/><use transform="matrix(0.04938271604938272,0,0,0.04938271604938272,71.95061728395063,0)" xlink:href="#aB"/></g><path d="M185-189c-5-48-123-54-124 2 14 75 158 14 163 119 3 78-121 87-175 55-17-10-28-26-33-46l33-7c5 56 141 63 141-1 0-78-155-14-162-118-5-82 145-84 179-34 5 7 8 16 11 25" id="aR"/><path d="M18-27v-27l151-64-151-65v-27l175 74v36" id="aS"/><g id="z"><use transform="matrix(0.04938271604938272,0,0,0.04938271604938272,0,0)" xlink:href="#aR"/><use transform="matrix(0.04938271604938272,0,0,0.04938271604938272,11.851851851851853,0)" xlink:href="#an"/><use transform="matrix(0.04938271604938272,0,0,0.04938271604938272,21.7283950617284,0)" xlink:href="#am"/><use transform="matrix(0.04938271604938272,0,0,0.04938271604938272,27.604938271604947,0)" xlink:href="#aN"/><use transform="matrix(0.04938271604938272,0,0,0.04938271604938272,36.49382716049384,0)" xlink:href="#ax"/><use transform="matrix(0.04938271604938272,0,0,0.04938271604938272,40.39506172839507,0)" xlink:href="#aM"/><use transform="matrix(0.04938271604938272,0,0,0.04938271604938272,49.28395061728396,0)" xlink:href="#an"/><use transform="matrix(0.04938271604938272,0,0,0.04938271604938272,59.16049382716051,0)" xlink:href="#aS"/><use transform="matrix(0.04938271604938272,0,0,0.04938271604938272,69.53086419753087,0)" xlink:href="#aS"/></g><path d="M136-208V0H84v-208H4v-40h212v40h-80" id="aT"/><path d="M147 0L96-86 75-71V0H25v-261h50v150l67-79h53l-66 74L201 0h-54" id="aU"/><path d="M169-182c-1-43-94-46-97-3 18 66 151 10 154 114 3 95-165 93-204 36-6-8-10-19-12-30l50-8c3 46 112 56 116 5-17-69-150-10-154-114-4-87 153-88 188-35 5 8 8 18 10 28" id="aV"/><path d="M128 0H69L1-190h53L99-40l48-150h52" id="aW"/><g id="A"><use transform="matrix(0.05,0,0,0.05,0,0)" xlink:href="#aT"/><use transform="matrix(0.05,0,0,0.05,9.600000000000001,0)" xlink:href="#Q"/><use transform="matrix(0.05,0,0,0.05,20.550000000000004,0)" xlink:href="#aU"/><use transform="matrix(0.05,0,0,0.05,30.55,0)" xlink:href="#X"/><use transform="matrix(0.05,0,0,0.05,40.550000000000004,0)" xlink:href="#T"/><use transform="matrix(0.05,0,0,0.05,51.5,0)" xlink:href="#aV"/><use transform="matrix(0.05,0,0,0.05,63.5,0)" xlink:href="#X"/><use transform="matrix(0.05,0,0,0.05,73.5,0)" xlink:href="#av"/><use transform="matrix(0.05,0,0,0.05,80.5,0)" xlink:href="#aW"/><use transform="matrix(0.05,0,0,0.05,90.5,0)" xlink:href="#S"/><use transform="matrix(0.05,0,0,0.05,95.5,0)" xlink:href="#af"/><use transform="matrix(0.05,0,0,0.05,105.5,0)" xlink:href="#X"/></g><path d="M115-194c53 0 69 39 70 98 0 66-23 100-70 100C84 3 66-7 56-30L54 0H23l1-261h32v101c10-23 28-34 59-34zm-8 174c40 0 45-34 45-75 0-40-5-75-45-74-42 0-51 32-51 76 0 43 10 73 51 73" id="aX"/><path d="M87 75C49 33 22-17 22-94c0-76 28-126 65-167h31c-38 41-64 92-64 168S80 34 118 75H87" id="aY"/><g id="B"><use transform="matrix(0.05,0,0,0.05,0,0)" xlink:href="#aX"/><use transform="matrix(0.05,0,0,0.05,10,0)" xlink:href="#aE"/><use transform="matrix(0.05,0,0,0.05,20,0)" xlink:href="#ax"/><use transform="matrix(0.05,0,0,0.05,23.95,0)" xlink:href="#aF"/><use transform="matrix(0.05,0,0,0.05,27.899999999999995,0)" xlink:href="#ay"/><use transform="matrix(0.05,0,0,0.05,37.9,0)" xlink:href="#aK"/><use transform="matrix(0.05,0,0,0.05,47.9,0)" xlink:href="#aI"/><use transform="matrix(0.05,0,0,0.05,57.900000000000006,0)" xlink:href="#ao"/><use transform="matrix(0.05,0,0,0.05,67.9,0)" xlink:href="#aO"/><use transform="matrix(0.05,0,0,0.05,76.9,0)" xlink:href="#aF"/><use transform="matrix(0.05,0,0,0.05,80.85000000000001,0)" xlink:href="#ar"/><use transform="matrix(0.05,0,0,0.05,90.85000000000001,0)" xlink:href="#ao"/><use transform="matrix(0.05,0,0,0.05,100.85000000000001,0)" xlink:href="#ay"/><use transform="matrix(0.05,0,0,0.05,110.85000000000001,0)" xlink:href="#aY"/></g><path d="M232-93c-1 65-40 97-104 97C67 4 28-28 28-90v-158h33c8 89-33 224 67 224 102 0 64-133 71-224h33v155" id="aZ"/><path d="M33-261c38 41 65 92 65 168S71 34 33 75H2C39 34 66-17 66-93S39-220 2-261h31" id="ba"/><path d="M30-248c87 1 191-15 191 75 0 78-77 80-158 76V0H30v-248zm33 125c57 0 124 11 124-50 0-59-68-47-124-48v98" id="bb"/><g id="C"><use transform="matrix(0.05,0,0,0.05,0,0)" xlink:href="#aE"/><use transform="matrix(0.05,0,0,0.05,10,0)" xlink:href="#az"/><use transform="matrix(0.05,0,0,0.05,15,0)" xlink:href="#aZ"/><use transform="matrix(0.05,0,0,0.05,27.950000000000003,0)" xlink:href="#aA"/><use transform="matrix(0.05,0,0,0.05,36.95,0)" xlink:href="#aE"/><use transform="matrix(0.05,0,0,0.05,46.95,0)" xlink:href="#ao"/><use transform="matrix(0.05,0,0,0.05,56.95,0)" xlink:href="#am"/><use transform="matrix(0.05,0,0,0.05,62.900000000000006,0)" xlink:href="#ax"/><use transform="matrix(0.05,0,0,0.05,66.85000000000001,0)" xlink:href="#ar"/><use transform="matrix(0.05,0,0,0.05,76.85000000000001,0)" xlink:href="#ba"/><use transform="matrix(0.05,0,0,0.05,82.80000000000001,0)" xlink:href="#az"/><use transform="matrix(0.05,0,0,0.05,87.80000000000001,0)" xlink:href="#bb"/><use transform="matrix(0.05,0,0,0.05,99.80000000000001,0)" xlink:href="#ao"/><use transform="matrix(0.05,0,0,0.05,109.80000000000001,0)" xlink:href="#aO"/><use transform="matrix(0.05,0,0,0.05,118.80000000000001,0)" xlink:href="#aF"/><use transform="matrix(0.05,0,0,0.05,122.75,0)" xlink:href="#ar"/><use transform="matrix(0.05,0,0,0.05,132.75,0)" xlink:href="#ao"/><use transform="matrix(0.05,0,0,0.05,142.75,0)" xlink:href="#ay"/></g><g id="D"><use transform="matrix(0.04938271604938272,0,0,0.04938271604938272,0,0)" xlink:href="#aj"/><use transform="matrix(0.04938271604938272,0,0,0.04938271604938272,10.370370370370372,0)" xlink:href="#aj"/><use transform="matrix(0.04938271604938272,0,0,0.04938271604938272,20.740740740740744,0)" xlink:href="#aG"/><use transform="matrix(0.04938271604938272,0,0,0.04938271604938272,31.259259259259267,0)" xlink:href="#ao"/><use transform="matrix(0.04938271604938272,0,0,0.04938271604938272,41.13580246913581,0)" xlink:href="#aF"/><use transform="matrix(0.04938271604938272,0,0,0.04938271604938272,45.037037037037045,0)" xlink:href="#aE"/><use transform="matrix(0.04938271604938272,0,0,0.04938271604938272,54.91358024691358,0)" xlink:href="#an"/></g><path d="M140-251c81 0 123 46 123 126C263-46 219 4 140 4 59 4 17-45 17-125s42-126 123-126zm0 227c63 0 89-41 89-101s-29-99-89-99c-61 0-89 39-89 99S79-25 140-24" id="bc"/><path d="M24-231v-30h32v30H24zM-9 49c24 4 33-6 33-30v-209h32V24c2 40-23 58-65 49V49" id="bd"/><g id="E"><use transform="matrix(0.04938271604938272,0,0,0.04938271604938272,0,0)" xlink:href="#bc"/><use transform="matrix(0.04938271604938272,0,0,0.04938271604938272,13.827160493827162,0)" xlink:href="#aX"/><use transform="matrix(0.04938271604938272,0,0,0.04938271604938272,23.703703703703706,0)" xlink:href="#bd"/><use transform="matrix(0.04938271604938272,0,0,0.04938271604938272,27.60493827160494,0)" xlink:href="#an"/><use transform="matrix(0.04938271604938272,0,0,0.04938271604938272,37.48148148148148,0)" xlink:href="#aM"/><use transform="matrix(0.04938271604938272,0,0,0.04938271604938272,46.37037037037037,0)" xlink:href="#ap"/><use transform="matrix(0.04938271604938272,0,0,0.04938271604938272,51.30864197530863,0)" xlink:href="#as"/><use transform="matrix(0.04938271604938272,0,0,0.04938271604938272,61.67901234567902,0)" xlink:href="#as"/></g><path d="M175 0L67-191c6 58 2 128 3 191H24v-248h59L193-55c-6-58-2-129-3-193h46V0h-61" id="be"/><path d="M25 0v-261h50V0H25" id="bf"/><g id="F"><use transform="matrix(0.04938271604938272,0,0,0.04938271604938272,0,0)" xlink:href="#be"/><use transform="matrix(0.04938271604938272,0,0,0.04938271604938272,12.790123456790125,0)" xlink:href="#S"/><use transform="matrix(0.04938271604938272,0,0,0.04938271604938272,17.7283950617284,0)" xlink:href="#aW"/><use transform="matrix(0.04938271604938272,0,0,0.04938271604938272,27.604938271604947,0)" xlink:href="#X"/><use transform="matrix(0.04938271604938272,0,0,0.04938271604938272,37.48148148148149,0)" xlink:href="#bf"/></g><g id="G"><use transform="matrix(0.04938271604938272,0,0,0.04938271604938272,0,0)" xlink:href="#ab"/><use transform="matrix(0.04938271604938272,0,0,0.04938271604938272,10.814814814814815,0)" xlink:href="#X"/></g><path d="M195-6C206 82 75 100 31 46c-4-6-6-13-8-21l49-6c3 16 16 24 34 25 40 0 42-37 40-79-11 22-30 35-61 35-53 0-70-43-70-97 0-56 18-96 73-97 30 0 46 14 59 34l2-30h47zm-90-29c32 0 41-27 41-63 0-35-9-62-40-62-32 0-39 29-40 63 0 36 9 62 39 62" id="bg"/><g id="H"><use transform="matrix(0.04938271604938272,0,0,0.04938271604938272,0,0)" xlink:href="#aV"/><use transform="matrix(0.04938271604938272,0,0,0.04938271604938272,11.851851851851853,0)" xlink:href="#X"/><use transform="matrix(0.04938271604938272,0,0,0.04938271604938272,21.7283950617284,0)" xlink:href="#bg"/><use transform="matrix(0.04938271604938272,0,0,0.04938271604938272,32.543209876543216,0)" xlink:href="#au"/><use transform="matrix(0.04938271604938272,0,0,0.04938271604938272,43.35802469135803,0)" xlink:href="#av"/><use transform="matrix(0.04938271604938272,0,0,0.04938271604938272,50.271604938271615,0)" xlink:href="#S"/><use transform="matrix(0.04938271604938272,0,0,0.04938271604938272,55.209876543209894,0)" xlink:href="#ab"/><use transform="matrix(0.04938271604938272,0,0,0.04938271604938272,66.0246913580247,0)" xlink:href="#ad"/><use transform="matrix(0.04938271604938272,0,0,0.04938271604938272,75.90123456790124,0)" xlink:href="#ab"/></g><g id="J"><use transform="matrix(0.05,0,0,0.05,0,0)" xlink:href="#aI"/><use transform="matrix(0.05,0,0,0.05,10,0)" xlink:href="#aE"/><use transform="matrix(0.05,0,0,0.05,20,0)" xlink:href="#an"/><use transform="matrix(0.05,0,0,0.05,30,0)" xlink:href="#ay"/><use transform="matrix(0.05,0,0,0.05,40,0)" xlink:href="#an"/><use transform="matrix(0.05,0,0,0.05,50,0)" xlink:href="#aK"/><use transform="matrix(0.05,0,0,0.05,60,0)" xlink:href="#aF"/><use transform="matrix(0.05,0,0,0.05,63.95,0)" xlink:href="#an"/><use transform="matrix(0.05,0,0,0.05,73.95,0)" xlink:href="#an"/><use transform="matrix(0.05,0,0,0.05,83.95,0)" xlink:href="#am"/><use transform="matrix(0.05,0,0,0.05,89.9,0)" xlink:href="#aY"/><use transform="matrix(0.05,0,0,0.05,95.85000000000001,0)" xlink:href="#ba"/><use transform="matrix(0.05,0,0,0.05,101.80000000000001,0)" xlink:href="#az"/></g><g id="K"><use transform="matrix(0.05,0,0,0.05,0,0)" xlink:href="#aX"/><use transform="matrix(0.05,0,0,0.05,10,0)" xlink:href="#ar"/><use transform="matrix(0.05,0,0,0.05,20,0)" xlink:href="#ar"/><use transform="matrix(0.05,0,0,0.05,30,0)" xlink:href="#aF"/></g><g id="L"><use transform="matrix(0.05,0,0,0.05,0,0)" xlink:href="#aI"/><use transform="matrix(0.05,0,0,0.05,10,0)" xlink:href="#aE"/><use transform="matrix(0.05,0,0,0.05,20,0)" xlink:href="#an"/><use transform="matrix(0.05,0,0,0.05,30,0)" xlink:href="#ay"/><use transform="matrix(0.05,0,0,0.05,40,0)" xlink:href="#an"/><use transform="matrix(0.05,0,0,0.05,50,0)" xlink:href="#aK"/><use transform="matrix(0.05,0,0,0.05,60,0)" xlink:href="#an"/><use transform="matrix(0.05,0,0,0.05,70,0)" xlink:href="#aA"/><use transform="matrix(0.05,0,0,0.05,79,0)" xlink:href="#aM"/><use transform="matrix(0.05,0,0,0.05,88,0)" xlink:href="#am"/><use transform="matrix(0.05,0,0,0.05,93.95,0)" xlink:href="#ax"/><use transform="matrix(0.05,0,0,0.05,97.9,0)" xlink:href="#aX"/><use transform="matrix(0.05,0,0,0.05,107.9,0)" xlink:href="#ax"/><use transform="matrix(0.05,0,0,0.05,111.85000000000001,0)" xlink:href="#am"/><use transform="matrix(0.05,0,0,0.05,117.80000000000001,0)" xlink:href="#aY"/><use transform="matrix(0.05,0,0,0.05,123.75,0)" xlink:href="#ba"/><use transform="matrix(0.05,0,0,0.05,129.70000000000002,0)" xlink:href="#az"/></g><g id="M"><use transform="matrix(0.05,0,0,0.05,0,0)" xlink:href="#aX"/><use transform="matrix(0.05,0,0,0.05,10,0)" xlink:href="#ar"/><use transform="matrix(0.05,0,0,0.05,20,0)" xlink:href="#ar"/><use transform="matrix(0.05,0,0,0.05,30,0)" xlink:href="#aF"/></g><path d="M67-125c0 53 21 87 73 88 37 1 54-22 65-47l45 17C233-25 199 4 140 4 58 4 20-42 15-125 8-235 124-281 211-232c18 10 29 29 36 50l-46 12c-8-25-30-41-62-41-52 0-71 34-72 86" id="bh"/><g id="N"><use transform="matrix(0.04938271604938272,0,0,0.04938271604938272,0,0)" xlink:href="#bh"/><use transform="matrix(0.04938271604938272,0,0,0.04938271604938272,12.790123456790125,0)" xlink:href="#av"/><use transform="matrix(0.04938271604938272,0,0,0.04938271604938272,19.703703703703706,0)" xlink:href="#X"/><use transform="matrix(0.04938271604938272,0,0,0.04938271604938272,29.58024691358025,0)" xlink:href="#ab"/><use transform="matrix(0.04938271604938272,0,0,0.04938271604938272,40.39506172839506,0)" xlink:href="#X"/><use transform="matrix(0.04938271604938272,0,0,0.04938271604938272,50.27160493827161,0)" xlink:href="#T"/><use transform="matrix(0.04938271604938272,0,0,0.04938271604938272,61.086419753086425,0)" xlink:href="#af"/><use transform="matrix(0.04938271604938272,0,0,0.04938271604938272,70.96296296296296,0)" xlink:href="#S"/><use transform="matrix(0.04938271604938272,0,0,0.04938271604938272,75.90123456790124,0)" xlink:href="#ad"/><use transform="matrix(0.04938271604938272,0,0,0.04938271604938272,85.77777777777779,0)" xlink:href="#bf"/><use transform="matrix(0.04938271604938272,0,0,0.04938271604938272,90.71604938271605,0)" xlink:href="#X"/><use transform="matrix(0.04938271604938272,0,0,0.04938271604938272,100.5925925925926,0)" xlink:href="#Y"/></g><g id="O"><use transform="matrix(0.05,0,0,0.05,0,0)" xlink:href="#aA"/><use transform="matrix(0.05,0,0,0.05,9,0)" xlink:href="#ap"/><use transform="matrix(0.05,0,0,0.05,14,0)" xlink:href="#am"/><use transform="matrix(0.05,0,0,0.05,19.95,0)" xlink:href="#ax"/><use transform="matrix(0.05,0,0,0.05,23.9,0)" xlink:href="#aB"/><use transform="matrix(0.05,0,0,0.05,33.9,0)" xlink:href="#al"/></g></defs></g></svg>